<?xml version="1.0" encoding="utf-8" standalone="no"?>
<!DOCTYPE svg PUBLIC "-//W3C//DTD SVG 1.1//EN"
  "http://www.w3.org/Graphics/SVG/1.1/DTD/svg11.dtd">
<!-- Created with matplotlib (https://matplotlib.org/) -->
<svg height="576pt" version="1.1" viewBox="0 0 864 576" width="864pt" xmlns="http://www.w3.org/2000/svg" xmlns:xlink="http://www.w3.org/1999/xlink">
 <defs>
  <style type="text/css">
*{stroke-linecap:butt;stroke-linejoin:round;}
  </style>
 </defs>
 <g id="figure_1">
  <g id="patch_1">
   <path d="M 0 576 
L 864 576 
L 864 0 
L 0 0 
z
" style="fill:#ffffff;"/>
  </g>
  <g id="axes_1">
   <g id="patch_2">
    <path d="M 24.824646 549.105354 
L 861.165354 549.105354 
L 861.165354 18.194646 
L 24.824646 18.194646 
z
" style="fill:#ffffff;"/>
   </g>
   <g id="matplotlib.axis_1">
    <g id="xtick_1">
     <g id="line2d_1">
      <path clip-path="url(#pce9e41ae3b)" d="M 48.493877 549.105354 
L 48.493877 18.194646 
" style="fill:none;stroke:#000000;stroke-linecap:square;stroke-opacity:0.1;stroke-width:0.5;"/>
     </g>
     <g id="line2d_2">
      <defs>
       <path d="M 0 0 
L 0 -3.5 
" id="m637e186e3e" style="stroke:#000000;stroke-width:0.8;"/>
      </defs>
      <g>
       <use style="stroke:#000000;stroke-width:0.8;" x="48.493877" xlink:href="#m637e186e3e" y="549.105354"/>
      </g>
     </g>
     <g id="text_1">
      <!-- 0 -->
      <defs>
       <path d="M 31.78125 66.40625 
Q 24.171875 66.40625 20.328125 58.90625 
Q 16.5 51.421875 16.5 36.375 
Q 16.5 21.390625 20.328125 13.890625 
Q 24.171875 6.390625 31.78125 6.390625 
Q 39.453125 6.390625 43.28125 13.890625 
Q 47.125 21.390625 47.125 36.375 
Q 47.125 51.421875 43.28125 58.90625 
Q 39.453125 66.40625 31.78125 66.40625 
z
M 31.78125 74.21875 
Q 44.046875 74.21875 50.515625 64.515625 
Q 56.984375 54.828125 56.984375 36.375 
Q 56.984375 17.96875 50.515625 8.265625 
Q 44.046875 -1.421875 31.78125 -1.421875 
Q 19.53125 -1.421875 13.0625 8.265625 
Q 6.59375 17.96875 6.59375 36.375 
Q 6.59375 54.828125 13.0625 64.515625 
Q 19.53125 74.21875 31.78125 74.21875 
z
" id="DejaVuSans-48"/>
      </defs>
      <g transform="translate(45.948877 558.684104)scale(0.08 -0.08)">
       <use xlink:href="#DejaVuSans-48"/>
      </g>
     </g>
    </g>
    <g id="xtick_2">
     <g id="line2d_3">
      <path clip-path="url(#pce9e41ae3b)" d="M 245.744241 549.105354 
L 245.744241 18.194646 
" style="fill:none;stroke:#000000;stroke-linecap:square;stroke-opacity:0.1;stroke-width:0.5;"/>
     </g>
     <g id="line2d_4">
      <g>
       <use style="stroke:#000000;stroke-width:0.8;" x="245.744241" xlink:href="#m637e186e3e" y="549.105354"/>
      </g>
     </g>
     <g id="text_2">
      <!-- 2.5×10⁶ -->
      <defs>
       <path d="M 19.1875 8.296875 
L 53.609375 8.296875 
L 53.609375 0 
L 7.328125 0 
L 7.328125 8.296875 
Q 12.9375 14.109375 22.625 23.890625 
Q 32.328125 33.6875 34.8125 36.53125 
Q 39.546875 41.84375 41.421875 45.53125 
Q 43.3125 49.21875 43.3125 52.78125 
Q 43.3125 58.59375 39.234375 62.25 
Q 35.15625 65.921875 28.609375 65.921875 
Q 23.96875 65.921875 18.8125 64.3125 
Q 13.671875 62.703125 7.8125 59.421875 
L 7.8125 69.390625 
Q 13.765625 71.78125 18.9375 73 
Q 24.125 74.21875 28.421875 74.21875 
Q 39.75 74.21875 46.484375 68.546875 
Q 53.21875 62.890625 53.21875 53.421875 
Q 53.21875 48.921875 51.53125 44.890625 
Q 49.859375 40.875 45.40625 35.40625 
Q 44.1875 33.984375 37.640625 27.21875 
Q 31.109375 20.453125 19.1875 8.296875 
z
" id="DejaVuSans-50"/>
       <path d="M 10.6875 12.40625 
L 21 12.40625 
L 21 0 
L 10.6875 0 
z
" id="DejaVuSans-46"/>
       <path d="M 10.796875 72.90625 
L 49.515625 72.90625 
L 49.515625 64.59375 
L 19.828125 64.59375 
L 19.828125 46.734375 
Q 21.96875 47.46875 24.109375 47.828125 
Q 26.265625 48.1875 28.421875 48.1875 
Q 40.625 48.1875 47.75 41.5 
Q 54.890625 34.8125 54.890625 23.390625 
Q 54.890625 11.625 47.5625 5.09375 
Q 40.234375 -1.421875 26.90625 -1.421875 
Q 22.3125 -1.421875 17.546875 -0.640625 
Q 12.796875 0.140625 7.71875 1.703125 
L 7.71875 11.625 
Q 12.109375 9.234375 16.796875 8.0625 
Q 21.484375 6.890625 26.703125 6.890625 
Q 35.15625 6.890625 40.078125 11.328125 
Q 45.015625 15.765625 45.015625 23.390625 
Q 45.015625 31 40.078125 35.4375 
Q 35.15625 39.890625 26.703125 39.890625 
Q 22.75 39.890625 18.8125 39.015625 
Q 14.890625 38.140625 10.796875 36.28125 
z
" id="DejaVuSans-53"/>
       <path d="M 70.125 53.71875 
L 47.796875 31.296875 
L 70.125 8.984375 
L 64.3125 3.078125 
L 41.890625 25.484375 
L 19.484375 3.078125 
L 13.71875 8.984375 
L 35.984375 31.296875 
L 13.71875 53.71875 
L 19.484375 59.625 
L 41.890625 37.203125 
L 64.3125 59.625 
z
" id="DejaVuSans-215"/>
       <path d="M 12.40625 8.296875 
L 28.515625 8.296875 
L 28.515625 63.921875 
L 10.984375 60.40625 
L 10.984375 69.390625 
L 28.421875 72.90625 
L 38.28125 72.90625 
L 38.28125 8.296875 
L 54.390625 8.296875 
L 54.390625 0 
L 12.40625 0 
z
" id="DejaVuSans-49"/>
       <path d="M 21.234375 55.328125 
Q 16.9375 55.328125 14.453125 52.78125 
Q 11.96875 50.203125 11.96875 45.75 
Q 11.96875 41.359375 14.453125 38.8125 
Q 16.9375 36.234375 21.234375 36.234375 
Q 25.484375 36.234375 27.984375 38.8125 
Q 30.46875 41.359375 30.46875 45.75 
Q 30.46875 50.203125 27.984375 52.78125 
Q 25.484375 55.328125 21.234375 55.328125 
z
M 33.84375 72.609375 
L 33.84375 67.578125 
Q 31.453125 68.5625 29 69.046875 
Q 26.5625 69.578125 24.171875 69.578125 
Q 17.921875 69.578125 14.59375 65.921875 
Q 11.28125 62.203125 10.796875 54.734375 
Q 12.640625 57.125 15.4375 58.40625 
Q 18.265625 59.671875 21.578125 59.671875 
Q 28.65625 59.671875 32.765625 55.953125 
Q 36.859375 52.203125 36.859375 45.75 
Q 36.859375 39.546875 32.5625 35.6875 
Q 28.328125 31.890625 21.234375 31.890625 
Q 13.09375 31.890625 8.796875 37.296875 
Q 4.5 42.71875 4.5 53.078125 
Q 4.5 62.75 9.765625 68.453125 
Q 15.046875 74.21875 23.921875 74.21875 
Q 26.3125 74.21875 28.765625 73.828125 
Q 31.203125 73.390625 33.84375 72.609375 
z
" id="DejaVuSans-8310"/>
      </defs>
      <g transform="translate(229.337366 558.684104)scale(0.08 -0.08)">
       <use xlink:href="#DejaVuSans-50"/>
       <use x="63.623047" xlink:href="#DejaVuSans-46"/>
       <use x="95.410156" xlink:href="#DejaVuSans-53"/>
       <use x="159.033203" xlink:href="#DejaVuSans-215"/>
       <use x="242.822266" xlink:href="#DejaVuSans-49"/>
       <use x="306.445312" xlink:href="#DejaVuSans-48"/>
       <use x="370.068359" xlink:href="#DejaVuSans-8310"/>
      </g>
     </g>
    </g>
    <g id="xtick_3">
     <g id="line2d_5">
      <path clip-path="url(#pce9e41ae3b)" d="M 442.994605 549.105354 
L 442.994605 18.194646 
" style="fill:none;stroke:#000000;stroke-linecap:square;stroke-opacity:0.1;stroke-width:0.5;"/>
     </g>
     <g id="line2d_6">
      <g>
       <use style="stroke:#000000;stroke-width:0.8;" x="442.994605" xlink:href="#m637e186e3e" y="549.105354"/>
      </g>
     </g>
     <g id="text_3">
      <!-- 5.0×10⁶ -->
      <g transform="translate(426.58773 558.684104)scale(0.08 -0.08)">
       <use xlink:href="#DejaVuSans-53"/>
       <use x="63.623047" xlink:href="#DejaVuSans-46"/>
       <use x="95.410156" xlink:href="#DejaVuSans-48"/>
       <use x="159.033203" xlink:href="#DejaVuSans-215"/>
       <use x="242.822266" xlink:href="#DejaVuSans-49"/>
       <use x="306.445312" xlink:href="#DejaVuSans-48"/>
       <use x="370.068359" xlink:href="#DejaVuSans-8310"/>
      </g>
     </g>
    </g>
    <g id="xtick_4">
     <g id="line2d_7">
      <path clip-path="url(#pce9e41ae3b)" d="M 640.24497 549.105354 
L 640.24497 18.194646 
" style="fill:none;stroke:#000000;stroke-linecap:square;stroke-opacity:0.1;stroke-width:0.5;"/>
     </g>
     <g id="line2d_8">
      <g>
       <use style="stroke:#000000;stroke-width:0.8;" x="640.24497" xlink:href="#m637e186e3e" y="549.105354"/>
      </g>
     </g>
     <g id="text_4">
      <!-- 7.5×10⁶ -->
      <defs>
       <path d="M 8.203125 72.90625 
L 55.078125 72.90625 
L 55.078125 68.703125 
L 28.609375 0 
L 18.3125 0 
L 43.21875 64.59375 
L 8.203125 64.59375 
z
" id="DejaVuSans-55"/>
      </defs>
      <g transform="translate(623.838095 558.684104)scale(0.08 -0.08)">
       <use xlink:href="#DejaVuSans-55"/>
       <use x="63.623047" xlink:href="#DejaVuSans-46"/>
       <use x="95.410156" xlink:href="#DejaVuSans-53"/>
       <use x="159.033203" xlink:href="#DejaVuSans-215"/>
       <use x="242.822266" xlink:href="#DejaVuSans-49"/>
       <use x="306.445312" xlink:href="#DejaVuSans-48"/>
       <use x="370.068359" xlink:href="#DejaVuSans-8310"/>
      </g>
     </g>
    </g>
    <g id="xtick_5">
     <g id="line2d_9">
      <path clip-path="url(#pce9e41ae3b)" d="M 837.495334 549.105354 
L 837.495334 18.194646 
" style="fill:none;stroke:#000000;stroke-linecap:square;stroke-opacity:0.1;stroke-width:0.5;"/>
     </g>
     <g id="line2d_10">
      <g>
       <use style="stroke:#000000;stroke-width:0.8;" x="837.495334" xlink:href="#m637e186e3e" y="549.105354"/>
      </g>
     </g>
     <g id="text_5">
      <!-- 1.0×10⁷ -->
      <defs>
       <path d="M 5.28125 73.390625 
L 35.40625 73.390625 
L 35.40625 71.046875 
L 18.40625 32.625 
L 11.765625 32.625 
L 27.78125 68.75 
L 5.28125 68.75 
z
" id="DejaVuSans-8311"/>
      </defs>
      <g transform="translate(821.088459 558.684104)scale(0.08 -0.08)">
       <use xlink:href="#DejaVuSans-49"/>
       <use x="63.623047" xlink:href="#DejaVuSans-46"/>
       <use x="95.410156" xlink:href="#DejaVuSans-48"/>
       <use x="159.033203" xlink:href="#DejaVuSans-215"/>
       <use x="242.822266" xlink:href="#DejaVuSans-49"/>
       <use x="306.445312" xlink:href="#DejaVuSans-48"/>
       <use x="370.068359" xlink:href="#DejaVuSans-8311"/>
      </g>
     </g>
    </g>
    <g id="text_6">
     <!-- n -->
     <defs>
      <path d="M 54.890625 33.015625 
L 54.890625 0 
L 45.90625 0 
L 45.90625 32.71875 
Q 45.90625 40.484375 42.875 44.328125 
Q 39.84375 48.1875 33.796875 48.1875 
Q 26.515625 48.1875 22.3125 43.546875 
Q 18.109375 38.921875 18.109375 30.90625 
L 18.109375 0 
L 9.078125 0 
L 9.078125 54.6875 
L 18.109375 54.6875 
L 18.109375 46.1875 
Q 21.34375 51.125 25.703125 53.5625 
Q 30.078125 56 35.796875 56 
Q 45.21875 56 50.046875 50.171875 
Q 54.890625 44.34375 54.890625 33.015625 
z
" id="DejaVuSans-110"/>
     </defs>
     <g transform="translate(439.509375 572.706136)scale(0.11 -0.11)">
      <use xlink:href="#DejaVuSans-110"/>
     </g>
    </g>
   </g>
   <g id="matplotlib.axis_2">
    <g id="ytick_1">
     <g id="line2d_11">
      <path clip-path="url(#pce9e41ae3b)" d="M 24.824646 534.078804 
L 861.165354 534.078804 
" style="fill:none;stroke:#000000;stroke-linecap:square;stroke-opacity:0.1;stroke-width:0.5;"/>
     </g>
     <g id="line2d_12">
      <defs>
       <path d="M 0 0 
L 3.5 0 
" id="m82d68cc095" style="stroke:#000000;stroke-width:0.8;"/>
      </defs>
      <g>
       <use style="stroke:#000000;stroke-width:0.8;" x="24.824646" xlink:href="#m82d68cc095" y="534.078804"/>
      </g>
     </g>
     <g id="text_7">
      <!-- 0 -->
      <g transform="translate(16.234646 537.118179)scale(0.08 -0.08)">
       <use xlink:href="#DejaVuSans-48"/>
      </g>
     </g>
    </g>
    <g id="ytick_2">
     <g id="line2d_13">
      <path clip-path="url(#pce9e41ae3b)" d="M 24.824646 389.186288 
L 861.165354 389.186288 
" style="fill:none;stroke:#000000;stroke-linecap:square;stroke-opacity:0.1;stroke-width:0.5;"/>
     </g>
     <g id="line2d_14">
      <g>
       <use style="stroke:#000000;stroke-width:0.8;" x="24.824646" xlink:href="#m82d68cc095" y="389.186288"/>
      </g>
     </g>
     <g id="text_8">
      <!-- 1 -->
      <g transform="translate(16.234646 392.225663)scale(0.08 -0.08)">
       <use xlink:href="#DejaVuSans-49"/>
      </g>
     </g>
    </g>
    <g id="ytick_3">
     <g id="line2d_15">
      <path clip-path="url(#pce9e41ae3b)" d="M 24.824646 244.293772 
L 861.165354 244.293772 
" style="fill:none;stroke:#000000;stroke-linecap:square;stroke-opacity:0.1;stroke-width:0.5;"/>
     </g>
     <g id="line2d_16">
      <g>
       <use style="stroke:#000000;stroke-width:0.8;" x="24.824646" xlink:href="#m82d68cc095" y="244.293772"/>
      </g>
     </g>
     <g id="text_9">
      <!-- 2 -->
      <g transform="translate(16.234646 247.333147)scale(0.08 -0.08)">
       <use xlink:href="#DejaVuSans-50"/>
      </g>
     </g>
    </g>
    <g id="ytick_4">
     <g id="line2d_17">
      <path clip-path="url(#pce9e41ae3b)" d="M 24.824646 99.401256 
L 861.165354 99.401256 
" style="fill:none;stroke:#000000;stroke-linecap:square;stroke-opacity:0.1;stroke-width:0.5;"/>
     </g>
     <g id="line2d_18">
      <g>
       <use style="stroke:#000000;stroke-width:0.8;" x="24.824646" xlink:href="#m82d68cc095" y="99.401256"/>
      </g>
     </g>
     <g id="text_10">
      <!-- 3 -->
      <defs>
       <path d="M 40.578125 39.3125 
Q 47.65625 37.796875 51.625 33 
Q 55.609375 28.21875 55.609375 21.1875 
Q 55.609375 10.40625 48.1875 4.484375 
Q 40.765625 -1.421875 27.09375 -1.421875 
Q 22.515625 -1.421875 17.65625 -0.515625 
Q 12.796875 0.390625 7.625 2.203125 
L 7.625 11.71875 
Q 11.71875 9.328125 16.59375 8.109375 
Q 21.484375 6.890625 26.8125 6.890625 
Q 36.078125 6.890625 40.9375 10.546875 
Q 45.796875 14.203125 45.796875 21.1875 
Q 45.796875 27.640625 41.28125 31.265625 
Q 36.765625 34.90625 28.71875 34.90625 
L 20.21875 34.90625 
L 20.21875 43.015625 
L 29.109375 43.015625 
Q 36.375 43.015625 40.234375 45.921875 
Q 44.09375 48.828125 44.09375 54.296875 
Q 44.09375 59.90625 40.109375 62.90625 
Q 36.140625 65.921875 28.71875 65.921875 
Q 24.65625 65.921875 20.015625 65.03125 
Q 15.375 64.15625 9.8125 62.3125 
L 9.8125 71.09375 
Q 15.4375 72.65625 20.34375 73.4375 
Q 25.25 74.21875 29.59375 74.21875 
Q 40.828125 74.21875 47.359375 69.109375 
Q 53.90625 64.015625 53.90625 55.328125 
Q 53.90625 49.265625 50.4375 45.09375 
Q 46.96875 40.921875 40.578125 39.3125 
z
" id="DejaVuSans-51"/>
      </defs>
      <g transform="translate(16.234646 102.440631)scale(0.08 -0.08)">
       <use xlink:href="#DejaVuSans-51"/>
      </g>
     </g>
    </g>
    <g id="text_11">
     <!-- t [s] -->
     <defs>
      <path d="M 18.3125 70.21875 
L 18.3125 54.6875 
L 36.8125 54.6875 
L 36.8125 47.703125 
L 18.3125 47.703125 
L 18.3125 18.015625 
Q 18.3125 11.328125 20.140625 9.421875 
Q 21.96875 7.515625 27.59375 7.515625 
L 36.8125 7.515625 
L 36.8125 0 
L 27.59375 0 
Q 17.1875 0 13.234375 3.875 
Q 9.28125 7.765625 9.28125 18.015625 
L 9.28125 47.703125 
L 2.6875 47.703125 
L 2.6875 54.6875 
L 9.28125 54.6875 
L 9.28125 70.21875 
z
" id="DejaVuSans-116"/>
      <path id="DejaVuSans-32"/>
      <path d="M 8.59375 75.984375 
L 29.296875 75.984375 
L 29.296875 69 
L 17.578125 69 
L 17.578125 -6.203125 
L 29.296875 -6.203125 
L 29.296875 -13.1875 
L 8.59375 -13.1875 
z
" id="DejaVuSans-91"/>
      <path d="M 44.28125 53.078125 
L 44.28125 44.578125 
Q 40.484375 46.53125 36.375 47.5 
Q 32.28125 48.484375 27.875 48.484375 
Q 21.1875 48.484375 17.84375 46.4375 
Q 14.5 44.390625 14.5 40.28125 
Q 14.5 37.15625 16.890625 35.375 
Q 19.28125 33.59375 26.515625 31.984375 
L 29.59375 31.296875 
Q 39.15625 29.25 43.1875 25.515625 
Q 47.21875 21.78125 47.21875 15.09375 
Q 47.21875 7.46875 41.1875 3.015625 
Q 35.15625 -1.421875 24.609375 -1.421875 
Q 20.21875 -1.421875 15.453125 -0.5625 
Q 10.6875 0.296875 5.421875 2 
L 5.421875 11.28125 
Q 10.40625 8.6875 15.234375 7.390625 
Q 20.0625 6.109375 24.8125 6.109375 
Q 31.15625 6.109375 34.5625 8.28125 
Q 37.984375 10.453125 37.984375 14.40625 
Q 37.984375 18.0625 35.515625 20.015625 
Q 33.0625 21.96875 24.703125 23.78125 
L 21.578125 24.515625 
Q 13.234375 26.265625 9.515625 29.90625 
Q 5.8125 33.546875 5.8125 39.890625 
Q 5.8125 47.609375 11.28125 51.796875 
Q 16.75 56 26.8125 56 
Q 31.78125 56 36.171875 55.265625 
Q 40.578125 54.546875 44.28125 53.078125 
z
" id="DejaVuSans-115"/>
      <path d="M 30.421875 75.984375 
L 30.421875 -13.1875 
L 9.71875 -13.1875 
L 9.71875 -6.203125 
L 21.390625 -6.203125 
L 21.390625 69 
L 9.71875 69 
L 9.71875 75.984375 
z
" id="DejaVuSans-93"/>
     </defs>
     <g transform="translate(9.946989 294.711016)rotate(-90)scale(0.11 -0.11)">
      <use xlink:href="#DejaVuSans-116"/>
      <use x="39.208984" xlink:href="#DejaVuSans-32"/>
      <use x="70.996094" xlink:href="#DejaVuSans-91"/>
      <use x="110.009766" xlink:href="#DejaVuSans-115"/>
      <use x="162.109375" xlink:href="#DejaVuSans-93"/>
     </g>
    </g>
   </g>
   <g id="line2d_19">
    <path clip-path="url(#pce9e41ae3b)" d="M 48.494666 534.078391 
L 48.495297 534.078281 
L 48.496402 534.078627 
L 48.498374 534.078556 
L 48.501767 534.078415 
L 48.507921 534.078156 
L 48.518888 534.077526 
L 48.538298 534.075657 
L 48.572777 534.073459 
L 48.63424 534.066248 
L 48.743438 534.052702 
L 48.937611 534.030325 
L 49.282878 533.985123 
L 49.896958 533.895129 
L 50.988936 533.65107 
L 52.930826 533.329652 
L 56.383891 532.641941 
L 62.524532 531.351656 
L 73.444312 529.047192 
L 92.862742 524.3836 
L 127.394022 511.501051 
L 188.800428 489.843967 
L 297.998072 423.149387 
L 492.182061 286.30973 
L 837.495334 66.864948 
" style="fill:none;stroke:#009afa;stroke-linecap:round;"/>
   </g>
   <g id="line2d_20">
    <path clip-path="url(#pce9e41ae3b)" d="M 48.494666 534.078938 
L 48.494666 534.077844 
" style="fill:none;stroke:#009afa;stroke-linecap:round;"/>
   </g>
   <g id="line2d_21">
    <path clip-path="url(#pce9e41ae3b)" d="M 48.495297 534.07958 
L 48.495297 534.076983 
" style="fill:none;stroke:#009afa;stroke-linecap:round;"/>
   </g>
   <g id="line2d_22">
    <path clip-path="url(#pce9e41ae3b)" d="M 48.496402 534.07872 
L 48.496402 534.078533 
" style="fill:none;stroke:#009afa;stroke-linecap:round;"/>
   </g>
   <g id="line2d_23">
    <path clip-path="url(#pce9e41ae3b)" d="M 48.498374 534.078657 
L 48.498374 534.078454 
" style="fill:none;stroke:#009afa;stroke-linecap:round;"/>
   </g>
   <g id="line2d_24">
    <path clip-path="url(#pce9e41ae3b)" d="M 48.501767 534.078513 
L 48.501767 534.078316 
" style="fill:none;stroke:#009afa;stroke-linecap:round;"/>
   </g>
   <g id="line2d_25">
    <path clip-path="url(#pce9e41ae3b)" d="M 48.507921 534.078358 
L 48.507921 534.077954 
" style="fill:none;stroke:#009afa;stroke-linecap:round;"/>
   </g>
   <g id="line2d_26">
    <path clip-path="url(#pce9e41ae3b)" d="M 48.518888 534.0779 
L 48.518888 534.077151 
" style="fill:none;stroke:#009afa;stroke-linecap:round;"/>
   </g>
   <g id="line2d_27">
    <path clip-path="url(#pce9e41ae3b)" d="M 48.538298 534.077067 
L 48.538298 534.074246 
" style="fill:none;stroke:#009afa;stroke-linecap:round;"/>
   </g>
   <g id="line2d_28">
    <path clip-path="url(#pce9e41ae3b)" d="M 48.572777 534.074391 
L 48.572777 534.072527 
" style="fill:none;stroke:#009afa;stroke-linecap:round;"/>
   </g>
   <g id="line2d_29">
    <path clip-path="url(#pce9e41ae3b)" d="M 48.63424 534.068084 
L 48.63424 534.064412 
" style="fill:none;stroke:#009afa;stroke-linecap:round;"/>
   </g>
   <g id="line2d_30">
    <path clip-path="url(#pce9e41ae3b)" d="M 48.743438 534.055698 
L 48.743438 534.049706 
" style="fill:none;stroke:#009afa;stroke-linecap:round;"/>
   </g>
   <g id="line2d_31">
    <path clip-path="url(#pce9e41ae3b)" d="M 48.937611 534.033358 
L 48.937611 534.027292 
" style="fill:none;stroke:#009afa;stroke-linecap:round;"/>
   </g>
   <g id="line2d_32">
    <path clip-path="url(#pce9e41ae3b)" d="M 49.282878 533.992922 
L 49.282878 533.977323 
" style="fill:none;stroke:#009afa;stroke-linecap:round;"/>
   </g>
   <g id="line2d_33">
    <path clip-path="url(#pce9e41ae3b)" d="M 49.896958 533.909184 
L 49.896958 533.881075 
" style="fill:none;stroke:#009afa;stroke-linecap:round;"/>
   </g>
   <g id="line2d_34">
    <path clip-path="url(#pce9e41ae3b)" d="M 50.988936 533.828194 
L 50.988936 533.473946 
" style="fill:none;stroke:#009afa;stroke-linecap:round;"/>
   </g>
   <g id="line2d_35">
    <path clip-path="url(#pce9e41ae3b)" d="M 52.930826 533.517017 
L 52.930826 533.142287 
" style="fill:none;stroke:#009afa;stroke-linecap:round;"/>
   </g>
   <g id="line2d_36">
    <path clip-path="url(#pce9e41ae3b)" d="M 56.383891 532.767218 
L 56.383891 532.516665 
" style="fill:none;stroke:#009afa;stroke-linecap:round;"/>
   </g>
   <g id="line2d_37">
    <path clip-path="url(#pce9e41ae3b)" d="M 62.524532 531.488361 
L 62.524532 531.214951 
" style="fill:none;stroke:#009afa;stroke-linecap:round;"/>
   </g>
   <g id="line2d_38">
    <path clip-path="url(#pce9e41ae3b)" d="M 73.444312 529.376609 
L 73.444312 528.717775 
" style="fill:none;stroke:#009afa;stroke-linecap:round;"/>
   </g>
   <g id="line2d_39">
    <path clip-path="url(#pce9e41ae3b)" d="M 92.862742 524.975279 
L 92.862742 523.79192 
" style="fill:none;stroke:#009afa;stroke-linecap:round;"/>
   </g>
   <g id="line2d_40">
    <path clip-path="url(#pce9e41ae3b)" d="M 127.394022 516.409454 
L 127.394022 506.592647 
" style="fill:none;stroke:#009afa;stroke-linecap:round;"/>
   </g>
   <g id="line2d_41">
    <path clip-path="url(#pce9e41ae3b)" d="M 188.800428 494.383048 
L 188.800428 485.304885 
" style="fill:none;stroke:#009afa;stroke-linecap:round;"/>
   </g>
   <g id="line2d_42">
    <path clip-path="url(#pce9e41ae3b)" d="M 297.998072 438.507212 
L 297.998072 407.791562 
" style="fill:none;stroke:#009afa;stroke-linecap:round;"/>
   </g>
   <g id="line2d_43">
    <path clip-path="url(#pce9e41ae3b)" d="M 492.182061 308.895696 
L 492.182061 263.723764 
" style="fill:none;stroke:#009afa;stroke-linecap:round;"/>
   </g>
   <g id="line2d_44">
    <path clip-path="url(#pce9e41ae3b)" d="M 837.495334 100.509476 
L 837.495334 33.22042 
" style="fill:none;stroke:#009afa;stroke-linecap:round;"/>
   </g>
   <g id="PathCollection_1">
    <defs>
     <path d="M 2 0 
L -2 -0 
" id="m59e061e4fa" style="stroke:#009afa;stroke-width:1.5;"/>
    </defs>
    <g clip-path="url(#pce9e41ae3b)">
     <use style="fill:#009afa;stroke:#009afa;stroke-width:1.5;" x="48.494666" xlink:href="#m59e061e4fa" y="534.078938"/>
     <use style="fill:#009afa;stroke:#009afa;stroke-width:1.5;" x="48.494666" xlink:href="#m59e061e4fa" y="534.077844"/>
     <use style="fill:#009afa;stroke:#009afa;stroke-width:1.5;" x="48.495297" xlink:href="#m59e061e4fa" y="534.07958"/>
     <use style="fill:#009afa;stroke:#009afa;stroke-width:1.5;" x="48.495297" xlink:href="#m59e061e4fa" y="534.076983"/>
     <use style="fill:#009afa;stroke:#009afa;stroke-width:1.5;" x="48.496402" xlink:href="#m59e061e4fa" y="534.07872"/>
     <use style="fill:#009afa;stroke:#009afa;stroke-width:1.5;" x="48.496402" xlink:href="#m59e061e4fa" y="534.078533"/>
     <use style="fill:#009afa;stroke:#009afa;stroke-width:1.5;" x="48.498374" xlink:href="#m59e061e4fa" y="534.078657"/>
     <use style="fill:#009afa;stroke:#009afa;stroke-width:1.5;" x="48.498374" xlink:href="#m59e061e4fa" y="534.078454"/>
     <use style="fill:#009afa;stroke:#009afa;stroke-width:1.5;" x="48.501767" xlink:href="#m59e061e4fa" y="534.078513"/>
     <use style="fill:#009afa;stroke:#009afa;stroke-width:1.5;" x="48.501767" xlink:href="#m59e061e4fa" y="534.078316"/>
     <use style="fill:#009afa;stroke:#009afa;stroke-width:1.5;" x="48.507921" xlink:href="#m59e061e4fa" y="534.078358"/>
     <use style="fill:#009afa;stroke:#009afa;stroke-width:1.5;" x="48.507921" xlink:href="#m59e061e4fa" y="534.077954"/>
     <use style="fill:#009afa;stroke:#009afa;stroke-width:1.5;" x="48.518888" xlink:href="#m59e061e4fa" y="534.0779"/>
     <use style="fill:#009afa;stroke:#009afa;stroke-width:1.5;" x="48.518888" xlink:href="#m59e061e4fa" y="534.077151"/>
     <use style="fill:#009afa;stroke:#009afa;stroke-width:1.5;" x="48.538298" xlink:href="#m59e061e4fa" y="534.077067"/>
     <use style="fill:#009afa;stroke:#009afa;stroke-width:1.5;" x="48.538298" xlink:href="#m59e061e4fa" y="534.074246"/>
     <use style="fill:#009afa;stroke:#009afa;stroke-width:1.5;" x="48.572777" xlink:href="#m59e061e4fa" y="534.074391"/>
     <use style="fill:#009afa;stroke:#009afa;stroke-width:1.5;" x="48.572777" xlink:href="#m59e061e4fa" y="534.072527"/>
     <use style="fill:#009afa;stroke:#009afa;stroke-width:1.5;" x="48.63424" xlink:href="#m59e061e4fa" y="534.068084"/>
     <use style="fill:#009afa;stroke:#009afa;stroke-width:1.5;" x="48.63424" xlink:href="#m59e061e4fa" y="534.064412"/>
     <use style="fill:#009afa;stroke:#009afa;stroke-width:1.5;" x="48.743438" xlink:href="#m59e061e4fa" y="534.055698"/>
     <use style="fill:#009afa;stroke:#009afa;stroke-width:1.5;" x="48.743438" xlink:href="#m59e061e4fa" y="534.049706"/>
     <use style="fill:#009afa;stroke:#009afa;stroke-width:1.5;" x="48.937611" xlink:href="#m59e061e4fa" y="534.033358"/>
     <use style="fill:#009afa;stroke:#009afa;stroke-width:1.5;" x="48.937611" xlink:href="#m59e061e4fa" y="534.027292"/>
     <use style="fill:#009afa;stroke:#009afa;stroke-width:1.5;" x="49.282878" xlink:href="#m59e061e4fa" y="533.992922"/>
     <use style="fill:#009afa;stroke:#009afa;stroke-width:1.5;" x="49.282878" xlink:href="#m59e061e4fa" y="533.977323"/>
     <use style="fill:#009afa;stroke:#009afa;stroke-width:1.5;" x="49.896958" xlink:href="#m59e061e4fa" y="533.909184"/>
     <use style="fill:#009afa;stroke:#009afa;stroke-width:1.5;" x="49.896958" xlink:href="#m59e061e4fa" y="533.881075"/>
     <use style="fill:#009afa;stroke:#009afa;stroke-width:1.5;" x="50.988936" xlink:href="#m59e061e4fa" y="533.828194"/>
     <use style="fill:#009afa;stroke:#009afa;stroke-width:1.5;" x="50.988936" xlink:href="#m59e061e4fa" y="533.473946"/>
     <use style="fill:#009afa;stroke:#009afa;stroke-width:1.5;" x="52.930826" xlink:href="#m59e061e4fa" y="533.517017"/>
     <use style="fill:#009afa;stroke:#009afa;stroke-width:1.5;" x="52.930826" xlink:href="#m59e061e4fa" y="533.142287"/>
     <use style="fill:#009afa;stroke:#009afa;stroke-width:1.5;" x="56.383891" xlink:href="#m59e061e4fa" y="532.767218"/>
     <use style="fill:#009afa;stroke:#009afa;stroke-width:1.5;" x="56.383891" xlink:href="#m59e061e4fa" y="532.516665"/>
     <use style="fill:#009afa;stroke:#009afa;stroke-width:1.5;" x="62.524532" xlink:href="#m59e061e4fa" y="531.488361"/>
     <use style="fill:#009afa;stroke:#009afa;stroke-width:1.5;" x="62.524532" xlink:href="#m59e061e4fa" y="531.214951"/>
     <use style="fill:#009afa;stroke:#009afa;stroke-width:1.5;" x="73.444312" xlink:href="#m59e061e4fa" y="529.376609"/>
     <use style="fill:#009afa;stroke:#009afa;stroke-width:1.5;" x="73.444312" xlink:href="#m59e061e4fa" y="528.717775"/>
     <use style="fill:#009afa;stroke:#009afa;stroke-width:1.5;" x="92.862742" xlink:href="#m59e061e4fa" y="524.975279"/>
     <use style="fill:#009afa;stroke:#009afa;stroke-width:1.5;" x="92.862742" xlink:href="#m59e061e4fa" y="523.79192"/>
     <use style="fill:#009afa;stroke:#009afa;stroke-width:1.5;" x="127.394022" xlink:href="#m59e061e4fa" y="516.409454"/>
     <use style="fill:#009afa;stroke:#009afa;stroke-width:1.5;" x="127.394022" xlink:href="#m59e061e4fa" y="506.592647"/>
     <use style="fill:#009afa;stroke:#009afa;stroke-width:1.5;" x="188.800428" xlink:href="#m59e061e4fa" y="494.383048"/>
     <use style="fill:#009afa;stroke:#009afa;stroke-width:1.5;" x="188.800428" xlink:href="#m59e061e4fa" y="485.304885"/>
     <use style="fill:#009afa;stroke:#009afa;stroke-width:1.5;" x="297.998072" xlink:href="#m59e061e4fa" y="438.507212"/>
     <use style="fill:#009afa;stroke:#009afa;stroke-width:1.5;" x="297.998072" xlink:href="#m59e061e4fa" y="407.791562"/>
     <use style="fill:#009afa;stroke:#009afa;stroke-width:1.5;" x="492.182061" xlink:href="#m59e061e4fa" y="308.895696"/>
     <use style="fill:#009afa;stroke:#009afa;stroke-width:1.5;" x="492.182061" xlink:href="#m59e061e4fa" y="263.723764"/>
     <use style="fill:#009afa;stroke:#009afa;stroke-width:1.5;" x="837.495334" xlink:href="#m59e061e4fa" y="100.509476"/>
     <use style="fill:#009afa;stroke:#009afa;stroke-width:1.5;" x="837.495334" xlink:href="#m59e061e4fa" y="33.22042"/>
    </g>
   </g>
   <g id="patch_3">
    <path d="M 24.824646 549.105354 
L 24.824646 18.194646 
" style="fill:none;stroke:#000000;stroke-linecap:square;stroke-linejoin:miter;"/>
   </g>
   <g id="patch_4">
    <path d="M 24.824646 549.105354 
L 861.165354 549.105354 
" style="fill:none;stroke:#000000;stroke-linecap:square;stroke-linejoin:miter;"/>
   </g>
   <g id="text_12">
    <!-- Minimize_linear_on_simplex_l1 -->
    <defs>
     <path d="M 9.8125 72.90625 
L 24.515625 72.90625 
L 43.109375 23.296875 
L 61.8125 72.90625 
L 76.515625 72.90625 
L 76.515625 0 
L 66.890625 0 
L 66.890625 64.015625 
L 48.09375 14.015625 
L 38.1875 14.015625 
L 19.390625 64.015625 
L 19.390625 0 
L 9.8125 0 
z
" id="DejaVuSans-77"/>
     <path d="M 9.421875 54.6875 
L 18.40625 54.6875 
L 18.40625 0 
L 9.421875 0 
z
M 9.421875 75.984375 
L 18.40625 75.984375 
L 18.40625 64.59375 
L 9.421875 64.59375 
z
" id="DejaVuSans-105"/>
     <path d="M 52 44.1875 
Q 55.375 50.25 60.0625 53.125 
Q 64.75 56 71.09375 56 
Q 79.640625 56 84.28125 50.015625 
Q 88.921875 44.046875 88.921875 33.015625 
L 88.921875 0 
L 79.890625 0 
L 79.890625 32.71875 
Q 79.890625 40.578125 77.09375 44.375 
Q 74.3125 48.1875 68.609375 48.1875 
Q 61.625 48.1875 57.5625 43.546875 
Q 53.515625 38.921875 53.515625 30.90625 
L 53.515625 0 
L 44.484375 0 
L 44.484375 32.71875 
Q 44.484375 40.625 41.703125 44.40625 
Q 38.921875 48.1875 33.109375 48.1875 
Q 26.21875 48.1875 22.15625 43.53125 
Q 18.109375 38.875 18.109375 30.90625 
L 18.109375 0 
L 9.078125 0 
L 9.078125 54.6875 
L 18.109375 54.6875 
L 18.109375 46.1875 
Q 21.1875 51.21875 25.484375 53.609375 
Q 29.78125 56 35.6875 56 
Q 41.65625 56 45.828125 52.96875 
Q 50 49.953125 52 44.1875 
z
" id="DejaVuSans-109"/>
     <path d="M 5.515625 54.6875 
L 48.1875 54.6875 
L 48.1875 46.484375 
L 14.40625 7.171875 
L 48.1875 7.171875 
L 48.1875 0 
L 4.296875 0 
L 4.296875 8.203125 
L 38.09375 47.515625 
L 5.515625 47.515625 
z
" id="DejaVuSans-122"/>
     <path d="M 56.203125 29.59375 
L 56.203125 25.203125 
L 14.890625 25.203125 
Q 15.484375 15.921875 20.484375 11.0625 
Q 25.484375 6.203125 34.421875 6.203125 
Q 39.59375 6.203125 44.453125 7.46875 
Q 49.3125 8.734375 54.109375 11.28125 
L 54.109375 2.78125 
Q 49.265625 0.734375 44.1875 -0.34375 
Q 39.109375 -1.421875 33.890625 -1.421875 
Q 20.796875 -1.421875 13.15625 6.1875 
Q 5.515625 13.8125 5.515625 26.8125 
Q 5.515625 40.234375 12.765625 48.109375 
Q 20.015625 56 32.328125 56 
Q 43.359375 56 49.78125 48.890625 
Q 56.203125 41.796875 56.203125 29.59375 
z
M 47.21875 32.234375 
Q 47.125 39.59375 43.09375 43.984375 
Q 39.0625 48.390625 32.421875 48.390625 
Q 24.90625 48.390625 20.390625 44.140625 
Q 15.875 39.890625 15.1875 32.171875 
z
" id="DejaVuSans-101"/>
     <path d="M 50.984375 -16.609375 
L 50.984375 -23.578125 
L -0.984375 -23.578125 
L -0.984375 -16.609375 
z
" id="DejaVuSans-95"/>
     <path d="M 9.421875 75.984375 
L 18.40625 75.984375 
L 18.40625 0 
L 9.421875 0 
z
" id="DejaVuSans-108"/>
     <path d="M 34.28125 27.484375 
Q 23.390625 27.484375 19.1875 25 
Q 14.984375 22.515625 14.984375 16.5 
Q 14.984375 11.71875 18.140625 8.90625 
Q 21.296875 6.109375 26.703125 6.109375 
Q 34.1875 6.109375 38.703125 11.40625 
Q 43.21875 16.703125 43.21875 25.484375 
L 43.21875 27.484375 
z
M 52.203125 31.203125 
L 52.203125 0 
L 43.21875 0 
L 43.21875 8.296875 
Q 40.140625 3.328125 35.546875 0.953125 
Q 30.953125 -1.421875 24.3125 -1.421875 
Q 15.921875 -1.421875 10.953125 3.296875 
Q 6 8.015625 6 15.921875 
Q 6 25.140625 12.171875 29.828125 
Q 18.359375 34.515625 30.609375 34.515625 
L 43.21875 34.515625 
L 43.21875 35.40625 
Q 43.21875 41.609375 39.140625 45 
Q 35.0625 48.390625 27.6875 48.390625 
Q 23 48.390625 18.546875 47.265625 
Q 14.109375 46.140625 10.015625 43.890625 
L 10.015625 52.203125 
Q 14.9375 54.109375 19.578125 55.046875 
Q 24.21875 56 28.609375 56 
Q 40.484375 56 46.34375 49.84375 
Q 52.203125 43.703125 52.203125 31.203125 
z
" id="DejaVuSans-97"/>
     <path d="M 41.109375 46.296875 
Q 39.59375 47.171875 37.8125 47.578125 
Q 36.03125 48 33.890625 48 
Q 26.265625 48 22.1875 43.046875 
Q 18.109375 38.09375 18.109375 28.8125 
L 18.109375 0 
L 9.078125 0 
L 9.078125 54.6875 
L 18.109375 54.6875 
L 18.109375 46.1875 
Q 20.953125 51.171875 25.484375 53.578125 
Q 30.03125 56 36.53125 56 
Q 37.453125 56 38.578125 55.875 
Q 39.703125 55.765625 41.0625 55.515625 
z
" id="DejaVuSans-114"/>
     <path d="M 30.609375 48.390625 
Q 23.390625 48.390625 19.1875 42.75 
Q 14.984375 37.109375 14.984375 27.296875 
Q 14.984375 17.484375 19.15625 11.84375 
Q 23.34375 6.203125 30.609375 6.203125 
Q 37.796875 6.203125 41.984375 11.859375 
Q 46.1875 17.53125 46.1875 27.296875 
Q 46.1875 37.015625 41.984375 42.703125 
Q 37.796875 48.390625 30.609375 48.390625 
z
M 30.609375 56 
Q 42.328125 56 49.015625 48.375 
Q 55.71875 40.765625 55.71875 27.296875 
Q 55.71875 13.875 49.015625 6.21875 
Q 42.328125 -1.421875 30.609375 -1.421875 
Q 18.84375 -1.421875 12.171875 6.21875 
Q 5.515625 13.875 5.515625 27.296875 
Q 5.515625 40.765625 12.171875 48.375 
Q 18.84375 56 30.609375 56 
z
" id="DejaVuSans-111"/>
     <path d="M 18.109375 8.203125 
L 18.109375 -20.796875 
L 9.078125 -20.796875 
L 9.078125 54.6875 
L 18.109375 54.6875 
L 18.109375 46.390625 
Q 20.953125 51.265625 25.265625 53.625 
Q 29.59375 56 35.59375 56 
Q 45.5625 56 51.78125 48.09375 
Q 58.015625 40.1875 58.015625 27.296875 
Q 58.015625 14.40625 51.78125 6.484375 
Q 45.5625 -1.421875 35.59375 -1.421875 
Q 29.59375 -1.421875 25.265625 0.953125 
Q 20.953125 3.328125 18.109375 8.203125 
z
M 48.6875 27.296875 
Q 48.6875 37.203125 44.609375 42.84375 
Q 40.53125 48.484375 33.40625 48.484375 
Q 26.265625 48.484375 22.1875 42.84375 
Q 18.109375 37.203125 18.109375 27.296875 
Q 18.109375 17.390625 22.1875 11.75 
Q 26.265625 6.109375 33.40625 6.109375 
Q 40.53125 6.109375 44.609375 11.75 
Q 48.6875 17.390625 48.6875 27.296875 
z
" id="DejaVuSans-112"/>
     <path d="M 54.890625 54.6875 
L 35.109375 28.078125 
L 55.90625 0 
L 45.3125 0 
L 29.390625 21.484375 
L 13.484375 0 
L 2.875 0 
L 24.125 28.609375 
L 4.6875 54.6875 
L 15.28125 54.6875 
L 29.78125 35.203125 
L 44.28125 54.6875 
z
" id="DejaVuSans-120"/>
    </defs>
    <g transform="translate(335.72 12.194646)scale(0.14 -0.14)">
     <use xlink:href="#DejaVuSans-77"/>
     <use x="86.279297" xlink:href="#DejaVuSans-105"/>
     <use x="114.0625" xlink:href="#DejaVuSans-110"/>
     <use x="177.441406" xlink:href="#DejaVuSans-105"/>
     <use x="205.224609" xlink:href="#DejaVuSans-109"/>
     <use x="302.636719" xlink:href="#DejaVuSans-105"/>
     <use x="330.419922" xlink:href="#DejaVuSans-122"/>
     <use x="382.910156" xlink:href="#DejaVuSans-101"/>
     <use x="444.433594" xlink:href="#DejaVuSans-95"/>
     <use x="494.433594" xlink:href="#DejaVuSans-108"/>
     <use x="522.216797" xlink:href="#DejaVuSans-105"/>
     <use x="550" xlink:href="#DejaVuSans-110"/>
     <use x="613.378906" xlink:href="#DejaVuSans-101"/>
     <use x="674.902344" xlink:href="#DejaVuSans-97"/>
     <use x="736.181641" xlink:href="#DejaVuSans-114"/>
     <use x="777.294922" xlink:href="#DejaVuSans-95"/>
     <use x="827.294922" xlink:href="#DejaVuSans-111"/>
     <use x="888.476562" xlink:href="#DejaVuSans-110"/>
     <use x="951.855469" xlink:href="#DejaVuSans-95"/>
     <use x="1001.855469" xlink:href="#DejaVuSans-115"/>
     <use x="1053.955078" xlink:href="#DejaVuSans-105"/>
     <use x="1081.738281" xlink:href="#DejaVuSans-109"/>
     <use x="1179.150391" xlink:href="#DejaVuSans-112"/>
     <use x="1242.626953" xlink:href="#DejaVuSans-108"/>
     <use x="1270.410156" xlink:href="#DejaVuSans-101"/>
     <use x="1331.917969" xlink:href="#DejaVuSans-120"/>
     <use x="1391.097656" xlink:href="#DejaVuSans-95"/>
     <use x="1441.097656" xlink:href="#DejaVuSans-108"/>
     <use x="1468.880859" xlink:href="#DejaVuSans-49"/>
    </g>
   </g>
   <g id="legend_1">
    <g id="patch_5">
     <path d="M 30.424646 36.337146 
L 65.849646 36.337146 
Q 67.449646 36.337146 67.449646 34.737146 
L 67.449646 23.794646 
Q 67.449646 22.194646 65.849646 22.194646 
L 30.424646 22.194646 
Q 28.824646 22.194646 28.824646 23.794646 
L 28.824646 34.737146 
Q 28.824646 36.337146 30.424646 36.337146 
z
" style="fill:#ffffff;stroke:#000000;stroke-linejoin:miter;"/>
    </g>
    <g id="line2d_45">
     <path d="M 32.024646 28.673396 
L 48.024646 28.673396 
" style="fill:none;stroke:#009afa;stroke-linecap:square;"/>
    </g>
    <g id="line2d_46"/>
    <g id="text_13">
     <!-- y1 -->
     <defs>
      <path d="M 32.171875 -5.078125 
Q 28.375 -14.84375 24.75 -17.8125 
Q 21.140625 -20.796875 15.09375 -20.796875 
L 7.90625 -20.796875 
L 7.90625 -13.28125 
L 13.1875 -13.28125 
Q 16.890625 -13.28125 18.9375 -11.515625 
Q 21 -9.765625 23.484375 -3.21875 
L 25.09375 0.875 
L 2.984375 54.6875 
L 12.5 54.6875 
L 29.59375 11.921875 
L 46.6875 54.6875 
L 56.203125 54.6875 
z
" id="DejaVuSans-121"/>
     </defs>
     <g transform="translate(54.424646 31.473396)scale(0.08 -0.08)">
      <use xlink:href="#DejaVuSans-121"/>
      <use x="59.179688" xlink:href="#DejaVuSans-49"/>
     </g>
    </g>
   </g>
  </g>
 </g>
 <defs>
  <clipPath id="pce9e41ae3b">
   <rect height="530.910709" width="836.340709" x="24.824646" y="18.194646"/>
  </clipPath>
 </defs>
</svg>
