<?xml version="1.0" encoding="utf-8" standalone="no"?>
<!DOCTYPE svg PUBLIC "-//W3C//DTD SVG 1.1//EN"
  "http://www.w3.org/Graphics/SVG/1.1/DTD/svg11.dtd">
<!-- Created with matplotlib (https://matplotlib.org/) -->
<svg height="576pt" version="1.1" viewBox="0 0 864 576" width="864pt" xmlns="http://www.w3.org/2000/svg" xmlns:xlink="http://www.w3.org/1999/xlink">
 <defs>
  <style type="text/css">
*{stroke-linecap:butt;stroke-linejoin:round;}
  </style>
 </defs>
 <g id="figure_1">
  <g id="patch_1">
   <path d="M 0 576 
L 864 576 
L 864 0 
L 0 0 
z
" style="fill:#ffffff;"/>
  </g>
  <g id="axes_1">
   <g id="patch_2">
    <path d="M 32.474646 549.105354 
L 861.165354 549.105354 
L 861.165354 18.194646 
L 32.474646 18.194646 
z
" style="fill:#ffffff;"/>
   </g>
   <g id="matplotlib.axis_1">
    <g id="xtick_1">
     <g id="line2d_1">
      <path clip-path="url(#p2efb07a998)" d="M 55.927375 549.105354 
L 55.927375 18.194646 
" style="fill:none;stroke:#000000;stroke-linecap:square;stroke-opacity:0.1;stroke-width:0.5;"/>
     </g>
     <g id="line2d_2">
      <defs>
       <path d="M 0 0 
L 0 -3.5 
" id="m6a9c29ed2a" style="stroke:#000000;stroke-width:0.8;"/>
      </defs>
      <g>
       <use style="stroke:#000000;stroke-width:0.8;" x="55.927375" xlink:href="#m6a9c29ed2a" y="549.105354"/>
      </g>
     </g>
     <g id="text_1">
      <!-- 0 -->
      <defs>
       <path d="M 31.78125 66.40625 
Q 24.171875 66.40625 20.328125 58.90625 
Q 16.5 51.421875 16.5 36.375 
Q 16.5 21.390625 20.328125 13.890625 
Q 24.171875 6.390625 31.78125 6.390625 
Q 39.453125 6.390625 43.28125 13.890625 
Q 47.125 21.390625 47.125 36.375 
Q 47.125 51.421875 43.28125 58.90625 
Q 39.453125 66.40625 31.78125 66.40625 
z
M 31.78125 74.21875 
Q 44.046875 74.21875 50.515625 64.515625 
Q 56.984375 54.828125 56.984375 36.375 
Q 56.984375 17.96875 50.515625 8.265625 
Q 44.046875 -1.421875 31.78125 -1.421875 
Q 19.53125 -1.421875 13.0625 8.265625 
Q 6.59375 17.96875 6.59375 36.375 
Q 6.59375 54.828125 13.0625 64.515625 
Q 19.53125 74.21875 31.78125 74.21875 
z
" id="DejaVuSans-48"/>
      </defs>
      <g transform="translate(53.382375 558.684104)scale(0.08 -0.08)">
       <use xlink:href="#DejaVuSans-48"/>
      </g>
     </g>
    </g>
    <g id="xtick_2">
     <g id="line2d_3">
      <path clip-path="url(#p2efb07a998)" d="M 251.373492 549.105354 
L 251.373492 18.194646 
" style="fill:none;stroke:#000000;stroke-linecap:square;stroke-opacity:0.1;stroke-width:0.5;"/>
     </g>
     <g id="line2d_4">
      <g>
       <use style="stroke:#000000;stroke-width:0.8;" x="251.373492" xlink:href="#m6a9c29ed2a" y="549.105354"/>
      </g>
     </g>
     <g id="text_2">
      <!-- 2.5×10⁶ -->
      <defs>
       <path d="M 19.1875 8.296875 
L 53.609375 8.296875 
L 53.609375 0 
L 7.328125 0 
L 7.328125 8.296875 
Q 12.9375 14.109375 22.625 23.890625 
Q 32.328125 33.6875 34.8125 36.53125 
Q 39.546875 41.84375 41.421875 45.53125 
Q 43.3125 49.21875 43.3125 52.78125 
Q 43.3125 58.59375 39.234375 62.25 
Q 35.15625 65.921875 28.609375 65.921875 
Q 23.96875 65.921875 18.8125 64.3125 
Q 13.671875 62.703125 7.8125 59.421875 
L 7.8125 69.390625 
Q 13.765625 71.78125 18.9375 73 
Q 24.125 74.21875 28.421875 74.21875 
Q 39.75 74.21875 46.484375 68.546875 
Q 53.21875 62.890625 53.21875 53.421875 
Q 53.21875 48.921875 51.53125 44.890625 
Q 49.859375 40.875 45.40625 35.40625 
Q 44.1875 33.984375 37.640625 27.21875 
Q 31.109375 20.453125 19.1875 8.296875 
z
" id="DejaVuSans-50"/>
       <path d="M 10.6875 12.40625 
L 21 12.40625 
L 21 0 
L 10.6875 0 
z
" id="DejaVuSans-46"/>
       <path d="M 10.796875 72.90625 
L 49.515625 72.90625 
L 49.515625 64.59375 
L 19.828125 64.59375 
L 19.828125 46.734375 
Q 21.96875 47.46875 24.109375 47.828125 
Q 26.265625 48.1875 28.421875 48.1875 
Q 40.625 48.1875 47.75 41.5 
Q 54.890625 34.8125 54.890625 23.390625 
Q 54.890625 11.625 47.5625 5.09375 
Q 40.234375 -1.421875 26.90625 -1.421875 
Q 22.3125 -1.421875 17.546875 -0.640625 
Q 12.796875 0.140625 7.71875 1.703125 
L 7.71875 11.625 
Q 12.109375 9.234375 16.796875 8.0625 
Q 21.484375 6.890625 26.703125 6.890625 
Q 35.15625 6.890625 40.078125 11.328125 
Q 45.015625 15.765625 45.015625 23.390625 
Q 45.015625 31 40.078125 35.4375 
Q 35.15625 39.890625 26.703125 39.890625 
Q 22.75 39.890625 18.8125 39.015625 
Q 14.890625 38.140625 10.796875 36.28125 
z
" id="DejaVuSans-53"/>
       <path d="M 70.125 53.71875 
L 47.796875 31.296875 
L 70.125 8.984375 
L 64.3125 3.078125 
L 41.890625 25.484375 
L 19.484375 3.078125 
L 13.71875 8.984375 
L 35.984375 31.296875 
L 13.71875 53.71875 
L 19.484375 59.625 
L 41.890625 37.203125 
L 64.3125 59.625 
z
" id="DejaVuSans-215"/>
       <path d="M 12.40625 8.296875 
L 28.515625 8.296875 
L 28.515625 63.921875 
L 10.984375 60.40625 
L 10.984375 69.390625 
L 28.421875 72.90625 
L 38.28125 72.90625 
L 38.28125 8.296875 
L 54.390625 8.296875 
L 54.390625 0 
L 12.40625 0 
z
" id="DejaVuSans-49"/>
       <path d="M 21.234375 55.328125 
Q 16.9375 55.328125 14.453125 52.78125 
Q 11.96875 50.203125 11.96875 45.75 
Q 11.96875 41.359375 14.453125 38.8125 
Q 16.9375 36.234375 21.234375 36.234375 
Q 25.484375 36.234375 27.984375 38.8125 
Q 30.46875 41.359375 30.46875 45.75 
Q 30.46875 50.203125 27.984375 52.78125 
Q 25.484375 55.328125 21.234375 55.328125 
z
M 33.84375 72.609375 
L 33.84375 67.578125 
Q 31.453125 68.5625 29 69.046875 
Q 26.5625 69.578125 24.171875 69.578125 
Q 17.921875 69.578125 14.59375 65.921875 
Q 11.28125 62.203125 10.796875 54.734375 
Q 12.640625 57.125 15.4375 58.40625 
Q 18.265625 59.671875 21.578125 59.671875 
Q 28.65625 59.671875 32.765625 55.953125 
Q 36.859375 52.203125 36.859375 45.75 
Q 36.859375 39.546875 32.5625 35.6875 
Q 28.328125 31.890625 21.234375 31.890625 
Q 13.09375 31.890625 8.796875 37.296875 
Q 4.5 42.71875 4.5 53.078125 
Q 4.5 62.75 9.765625 68.453125 
Q 15.046875 74.21875 23.921875 74.21875 
Q 26.3125 74.21875 28.765625 73.828125 
Q 31.203125 73.390625 33.84375 72.609375 
z
" id="DejaVuSans-8310"/>
      </defs>
      <g transform="translate(234.966617 558.684104)scale(0.08 -0.08)">
       <use xlink:href="#DejaVuSans-50"/>
       <use x="63.623047" xlink:href="#DejaVuSans-46"/>
       <use x="95.410156" xlink:href="#DejaVuSans-53"/>
       <use x="159.033203" xlink:href="#DejaVuSans-215"/>
       <use x="242.822266" xlink:href="#DejaVuSans-49"/>
       <use x="306.445312" xlink:href="#DejaVuSans-48"/>
       <use x="370.068359" xlink:href="#DejaVuSans-8310"/>
      </g>
     </g>
    </g>
    <g id="xtick_3">
     <g id="line2d_5">
      <path clip-path="url(#p2efb07a998)" d="M 446.819609 549.105354 
L 446.819609 18.194646 
" style="fill:none;stroke:#000000;stroke-linecap:square;stroke-opacity:0.1;stroke-width:0.5;"/>
     </g>
     <g id="line2d_6">
      <g>
       <use style="stroke:#000000;stroke-width:0.8;" x="446.819609" xlink:href="#m6a9c29ed2a" y="549.105354"/>
      </g>
     </g>
     <g id="text_3">
      <!-- 5.0×10⁶ -->
      <g transform="translate(430.412734 558.684104)scale(0.08 -0.08)">
       <use xlink:href="#DejaVuSans-53"/>
       <use x="63.623047" xlink:href="#DejaVuSans-46"/>
       <use x="95.410156" xlink:href="#DejaVuSans-48"/>
       <use x="159.033203" xlink:href="#DejaVuSans-215"/>
       <use x="242.822266" xlink:href="#DejaVuSans-49"/>
       <use x="306.445312" xlink:href="#DejaVuSans-48"/>
       <use x="370.068359" xlink:href="#DejaVuSans-8310"/>
      </g>
     </g>
    </g>
    <g id="xtick_4">
     <g id="line2d_7">
      <path clip-path="url(#p2efb07a998)" d="M 642.265726 549.105354 
L 642.265726 18.194646 
" style="fill:none;stroke:#000000;stroke-linecap:square;stroke-opacity:0.1;stroke-width:0.5;"/>
     </g>
     <g id="line2d_8">
      <g>
       <use style="stroke:#000000;stroke-width:0.8;" x="642.265726" xlink:href="#m6a9c29ed2a" y="549.105354"/>
      </g>
     </g>
     <g id="text_4">
      <!-- 7.5×10⁶ -->
      <defs>
       <path d="M 8.203125 72.90625 
L 55.078125 72.90625 
L 55.078125 68.703125 
L 28.609375 0 
L 18.3125 0 
L 43.21875 64.59375 
L 8.203125 64.59375 
z
" id="DejaVuSans-55"/>
      </defs>
      <g transform="translate(625.858851 558.684104)scale(0.08 -0.08)">
       <use xlink:href="#DejaVuSans-55"/>
       <use x="63.623047" xlink:href="#DejaVuSans-46"/>
       <use x="95.410156" xlink:href="#DejaVuSans-53"/>
       <use x="159.033203" xlink:href="#DejaVuSans-215"/>
       <use x="242.822266" xlink:href="#DejaVuSans-49"/>
       <use x="306.445312" xlink:href="#DejaVuSans-48"/>
       <use x="370.068359" xlink:href="#DejaVuSans-8310"/>
      </g>
     </g>
    </g>
    <g id="xtick_5">
     <g id="line2d_9">
      <path clip-path="url(#p2efb07a998)" d="M 837.711844 549.105354 
L 837.711844 18.194646 
" style="fill:none;stroke:#000000;stroke-linecap:square;stroke-opacity:0.1;stroke-width:0.5;"/>
     </g>
     <g id="line2d_10">
      <g>
       <use style="stroke:#000000;stroke-width:0.8;" x="837.711844" xlink:href="#m6a9c29ed2a" y="549.105354"/>
      </g>
     </g>
     <g id="text_5">
      <!-- 1.0×10⁷ -->
      <defs>
       <path d="M 5.28125 73.390625 
L 35.40625 73.390625 
L 35.40625 71.046875 
L 18.40625 32.625 
L 11.765625 32.625 
L 27.78125 68.75 
L 5.28125 68.75 
z
" id="DejaVuSans-8311"/>
      </defs>
      <g transform="translate(821.304969 558.684104)scale(0.08 -0.08)">
       <use xlink:href="#DejaVuSans-49"/>
       <use x="63.623047" xlink:href="#DejaVuSans-46"/>
       <use x="95.410156" xlink:href="#DejaVuSans-48"/>
       <use x="159.033203" xlink:href="#DejaVuSans-215"/>
       <use x="242.822266" xlink:href="#DejaVuSans-49"/>
       <use x="306.445312" xlink:href="#DejaVuSans-48"/>
       <use x="370.068359" xlink:href="#DejaVuSans-8311"/>
      </g>
     </g>
    </g>
    <g id="text_6">
     <!-- n -->
     <defs>
      <path d="M 54.890625 33.015625 
L 54.890625 0 
L 45.90625 0 
L 45.90625 32.71875 
Q 45.90625 40.484375 42.875 44.328125 
Q 39.84375 48.1875 33.796875 48.1875 
Q 26.515625 48.1875 22.3125 43.546875 
Q 18.109375 38.921875 18.109375 30.90625 
L 18.109375 0 
L 9.078125 0 
L 9.078125 54.6875 
L 18.109375 54.6875 
L 18.109375 46.1875 
Q 21.34375 51.125 25.703125 53.5625 
Q 30.078125 56 35.796875 56 
Q 45.21875 56 50.046875 50.171875 
Q 54.890625 44.34375 54.890625 33.015625 
z
" id="DejaVuSans-110"/>
     </defs>
     <g transform="translate(443.334375 572.706136)scale(0.11 -0.11)">
      <use xlink:href="#DejaVuSans-110"/>
     </g>
    </g>
   </g>
   <g id="matplotlib.axis_2">
    <g id="ytick_1">
     <g id="line2d_11">
      <path clip-path="url(#p2efb07a998)" d="M 32.474646 534.079122 
L 861.165354 534.079122 
" style="fill:none;stroke:#000000;stroke-linecap:square;stroke-opacity:0.1;stroke-width:0.5;"/>
     </g>
     <g id="line2d_12">
      <defs>
       <path d="M 0 0 
L 3.5 0 
" id="m9553b46ff1" style="stroke:#000000;stroke-width:0.8;"/>
      </defs>
      <g>
       <use style="stroke:#000000;stroke-width:0.8;" x="32.474646" xlink:href="#m9553b46ff1" y="534.079122"/>
      </g>
     </g>
     <g id="text_7">
      <!-- 0.0 -->
      <g transform="translate(16.252146 537.118497)scale(0.08 -0.08)">
       <use xlink:href="#DejaVuSans-48"/>
       <use x="63.623047" xlink:href="#DejaVuSans-46"/>
       <use x="95.410156" xlink:href="#DejaVuSans-48"/>
      </g>
     </g>
    </g>
    <g id="ytick_2">
     <g id="line2d_13">
      <path clip-path="url(#p2efb07a998)" d="M 32.474646 446.634761 
L 861.165354 446.634761 
" style="fill:none;stroke:#000000;stroke-linecap:square;stroke-opacity:0.1;stroke-width:0.5;"/>
     </g>
     <g id="line2d_14">
      <g>
       <use style="stroke:#000000;stroke-width:0.8;" x="32.474646" xlink:href="#m9553b46ff1" y="446.634761"/>
      </g>
     </g>
     <g id="text_8">
      <!-- 0.5 -->
      <g transform="translate(16.252146 449.674136)scale(0.08 -0.08)">
       <use xlink:href="#DejaVuSans-48"/>
       <use x="63.623047" xlink:href="#DejaVuSans-46"/>
       <use x="95.410156" xlink:href="#DejaVuSans-53"/>
      </g>
     </g>
    </g>
    <g id="ytick_3">
     <g id="line2d_15">
      <path clip-path="url(#p2efb07a998)" d="M 32.474646 359.1904 
L 861.165354 359.1904 
" style="fill:none;stroke:#000000;stroke-linecap:square;stroke-opacity:0.1;stroke-width:0.5;"/>
     </g>
     <g id="line2d_16">
      <g>
       <use style="stroke:#000000;stroke-width:0.8;" x="32.474646" xlink:href="#m9553b46ff1" y="359.1904"/>
      </g>
     </g>
     <g id="text_9">
      <!-- 1.0 -->
      <g transform="translate(16.252146 362.229775)scale(0.08 -0.08)">
       <use xlink:href="#DejaVuSans-49"/>
       <use x="63.623047" xlink:href="#DejaVuSans-46"/>
       <use x="95.410156" xlink:href="#DejaVuSans-48"/>
      </g>
     </g>
    </g>
    <g id="ytick_4">
     <g id="line2d_17">
      <path clip-path="url(#p2efb07a998)" d="M 32.474646 271.746039 
L 861.165354 271.746039 
" style="fill:none;stroke:#000000;stroke-linecap:square;stroke-opacity:0.1;stroke-width:0.5;"/>
     </g>
     <g id="line2d_18">
      <g>
       <use style="stroke:#000000;stroke-width:0.8;" x="32.474646" xlink:href="#m9553b46ff1" y="271.746039"/>
      </g>
     </g>
     <g id="text_10">
      <!-- 1.5 -->
      <g transform="translate(16.252146 274.785414)scale(0.08 -0.08)">
       <use xlink:href="#DejaVuSans-49"/>
       <use x="63.623047" xlink:href="#DejaVuSans-46"/>
       <use x="95.410156" xlink:href="#DejaVuSans-53"/>
      </g>
     </g>
    </g>
    <g id="ytick_5">
     <g id="line2d_19">
      <path clip-path="url(#p2efb07a998)" d="M 32.474646 184.301678 
L 861.165354 184.301678 
" style="fill:none;stroke:#000000;stroke-linecap:square;stroke-opacity:0.1;stroke-width:0.5;"/>
     </g>
     <g id="line2d_20">
      <g>
       <use style="stroke:#000000;stroke-width:0.8;" x="32.474646" xlink:href="#m9553b46ff1" y="184.301678"/>
      </g>
     </g>
     <g id="text_11">
      <!-- 2.0 -->
      <g transform="translate(16.252146 187.341053)scale(0.08 -0.08)">
       <use xlink:href="#DejaVuSans-50"/>
       <use x="63.623047" xlink:href="#DejaVuSans-46"/>
       <use x="95.410156" xlink:href="#DejaVuSans-48"/>
      </g>
     </g>
    </g>
    <g id="ytick_6">
     <g id="line2d_21">
      <path clip-path="url(#p2efb07a998)" d="M 32.474646 96.857318 
L 861.165354 96.857318 
" style="fill:none;stroke:#000000;stroke-linecap:square;stroke-opacity:0.1;stroke-width:0.5;"/>
     </g>
     <g id="line2d_22">
      <g>
       <use style="stroke:#000000;stroke-width:0.8;" x="32.474646" xlink:href="#m9553b46ff1" y="96.857318"/>
      </g>
     </g>
     <g id="text_12">
      <!-- 2.5 -->
      <g transform="translate(16.252146 99.896693)scale(0.08 -0.08)">
       <use xlink:href="#DejaVuSans-50"/>
       <use x="63.623047" xlink:href="#DejaVuSans-46"/>
       <use x="95.410156" xlink:href="#DejaVuSans-53"/>
      </g>
     </g>
    </g>
    <g id="text_13">
     <!-- t [s] -->
     <defs>
      <path d="M 18.3125 70.21875 
L 18.3125 54.6875 
L 36.8125 54.6875 
L 36.8125 47.703125 
L 18.3125 47.703125 
L 18.3125 18.015625 
Q 18.3125 11.328125 20.140625 9.421875 
Q 21.96875 7.515625 27.59375 7.515625 
L 36.8125 7.515625 
L 36.8125 0 
L 27.59375 0 
Q 17.1875 0 13.234375 3.875 
Q 9.28125 7.765625 9.28125 18.015625 
L 9.28125 47.703125 
L 2.6875 47.703125 
L 2.6875 54.6875 
L 9.28125 54.6875 
L 9.28125 70.21875 
z
" id="DejaVuSans-116"/>
      <path id="DejaVuSans-32"/>
      <path d="M 8.59375 75.984375 
L 29.296875 75.984375 
L 29.296875 69 
L 17.578125 69 
L 17.578125 -6.203125 
L 29.296875 -6.203125 
L 29.296875 -13.1875 
L 8.59375 -13.1875 
z
" id="DejaVuSans-91"/>
      <path d="M 44.28125 53.078125 
L 44.28125 44.578125 
Q 40.484375 46.53125 36.375 47.5 
Q 32.28125 48.484375 27.875 48.484375 
Q 21.1875 48.484375 17.84375 46.4375 
Q 14.5 44.390625 14.5 40.28125 
Q 14.5 37.15625 16.890625 35.375 
Q 19.28125 33.59375 26.515625 31.984375 
L 29.59375 31.296875 
Q 39.15625 29.25 43.1875 25.515625 
Q 47.21875 21.78125 47.21875 15.09375 
Q 47.21875 7.46875 41.1875 3.015625 
Q 35.15625 -1.421875 24.609375 -1.421875 
Q 20.21875 -1.421875 15.453125 -0.5625 
Q 10.6875 0.296875 5.421875 2 
L 5.421875 11.28125 
Q 10.40625 8.6875 15.234375 7.390625 
Q 20.0625 6.109375 24.8125 6.109375 
Q 31.15625 6.109375 34.5625 8.28125 
Q 37.984375 10.453125 37.984375 14.40625 
Q 37.984375 18.0625 35.515625 20.015625 
Q 33.0625 21.96875 24.703125 23.78125 
L 21.578125 24.515625 
Q 13.234375 26.265625 9.515625 29.90625 
Q 5.8125 33.546875 5.8125 39.890625 
Q 5.8125 47.609375 11.28125 51.796875 
Q 16.75 56 26.8125 56 
Q 31.78125 56 36.171875 55.265625 
Q 40.578125 54.546875 44.28125 53.078125 
z
" id="DejaVuSans-115"/>
      <path d="M 30.421875 75.984375 
L 30.421875 -13.1875 
L 9.71875 -13.1875 
L 9.71875 -6.203125 
L 21.390625 -6.203125 
L 21.390625 69 
L 9.71875 69 
L 9.71875 75.984375 
z
" id="DejaVuSans-93"/>
     </defs>
     <g transform="translate(9.964489 294.711016)rotate(-90)scale(0.11 -0.11)">
      <use xlink:href="#DejaVuSans-116"/>
      <use x="39.208984" xlink:href="#DejaVuSans-32"/>
      <use x="70.996094" xlink:href="#DejaVuSans-91"/>
      <use x="110.009766" xlink:href="#DejaVuSans-115"/>
      <use x="162.109375" xlink:href="#DejaVuSans-93"/>
     </g>
    </g>
   </g>
   <g id="line2d_23">
    <path clip-path="url(#p2efb07a998)" d="M 55.928156 534.078623 
L 55.928782 534.077891 
L 55.929876 534.078885 
L 55.931831 534.078751 
L 55.935192 534.078521 
L 55.94129 534.078165 
L 55.952157 534.077105 
L 55.971389 534.073428 
L 56.005553 534.070283 
L 56.066454 534.062774 
L 56.174653 534.045529 
L 56.36705 534.010983 
L 56.709159 533.955374 
L 57.317622 533.828892 
L 58.399612 533.482953 
L 60.323739 533.124826 
L 63.745219 532.236471 
L 69.829691 530.693758 
L 80.649588 527.641358 
L 99.890399 521.666619 
L 134.105821 506.843082 
L 194.950543 476.762883 
L 303.149357 408.153272 
L 495.557147 307.6986 
L 837.711844 58.97877 
" style="fill:none;stroke:#009afa;stroke-linecap:round;"/>
   </g>
   <g id="line2d_24">
    <path clip-path="url(#p2efb07a998)" d="M 55.928156 534.079528 
L 55.928156 534.077718 
" style="fill:none;stroke:#009afa;stroke-linecap:round;"/>
   </g>
   <g id="line2d_25">
    <path clip-path="url(#p2efb07a998)" d="M 55.928782 534.07958 
L 55.928782 534.076202 
" style="fill:none;stroke:#009afa;stroke-linecap:round;"/>
   </g>
   <g id="line2d_26">
    <path clip-path="url(#p2efb07a998)" d="M 55.929876 534.078972 
L 55.929876 534.078799 
" style="fill:none;stroke:#009afa;stroke-linecap:round;"/>
   </g>
   <g id="line2d_27">
    <path clip-path="url(#p2efb07a998)" d="M 55.931831 534.078881 
L 55.931831 534.078621 
" style="fill:none;stroke:#009afa;stroke-linecap:round;"/>
   </g>
   <g id="line2d_28">
    <path clip-path="url(#p2efb07a998)" d="M 55.935192 534.078648 
L 55.935192 534.078394 
" style="fill:none;stroke:#009afa;stroke-linecap:round;"/>
   </g>
   <g id="line2d_29">
    <path clip-path="url(#p2efb07a998)" d="M 55.94129 534.078401 
L 55.94129 534.07793 
" style="fill:none;stroke:#009afa;stroke-linecap:round;"/>
   </g>
   <g id="line2d_30">
    <path clip-path="url(#p2efb07a998)" d="M 55.952157 534.077736 
L 55.952157 534.076474 
" style="fill:none;stroke:#009afa;stroke-linecap:round;"/>
   </g>
   <g id="line2d_31">
    <path clip-path="url(#p2efb07a998)" d="M 55.971389 534.075496 
L 55.971389 534.07136 
" style="fill:none;stroke:#009afa;stroke-linecap:round;"/>
   </g>
   <g id="line2d_32">
    <path clip-path="url(#p2efb07a998)" d="M 56.005553 534.072892 
L 56.005553 534.067673 
" style="fill:none;stroke:#009afa;stroke-linecap:round;"/>
   </g>
   <g id="line2d_33">
    <path clip-path="url(#p2efb07a998)" d="M 56.066454 534.063428 
L 56.066454 534.062121 
" style="fill:none;stroke:#009afa;stroke-linecap:round;"/>
   </g>
   <g id="line2d_34">
    <path clip-path="url(#p2efb07a998)" d="M 56.174653 534.047118 
L 56.174653 534.043941 
" style="fill:none;stroke:#009afa;stroke-linecap:round;"/>
   </g>
   <g id="line2d_35">
    <path clip-path="url(#p2efb07a998)" d="M 56.36705 534.0193 
L 56.36705 534.002667 
" style="fill:none;stroke:#009afa;stroke-linecap:round;"/>
   </g>
   <g id="line2d_36">
    <path clip-path="url(#p2efb07a998)" d="M 56.709159 533.960874 
L 56.709159 533.949874 
" style="fill:none;stroke:#009afa;stroke-linecap:round;"/>
   </g>
   <g id="line2d_37">
    <path clip-path="url(#p2efb07a998)" d="M 57.317622 533.84445 
L 57.317622 533.813334 
" style="fill:none;stroke:#009afa;stroke-linecap:round;"/>
   </g>
   <g id="line2d_38">
    <path clip-path="url(#p2efb07a998)" d="M 58.399612 533.747084 
L 58.399612 533.218823 
" style="fill:none;stroke:#009afa;stroke-linecap:round;"/>
   </g>
   <g id="line2d_39">
    <path clip-path="url(#p2efb07a998)" d="M 60.323739 533.293753 
L 60.323739 532.9559 
" style="fill:none;stroke:#009afa;stroke-linecap:round;"/>
   </g>
   <g id="line2d_40">
    <path clip-path="url(#p2efb07a998)" d="M 63.745219 532.413811 
L 63.745219 532.059131 
" style="fill:none;stroke:#009afa;stroke-linecap:round;"/>
   </g>
   <g id="line2d_41">
    <path clip-path="url(#p2efb07a998)" d="M 69.829691 530.851966 
L 69.829691 530.535551 
" style="fill:none;stroke:#009afa;stroke-linecap:round;"/>
   </g>
   <g id="line2d_42">
    <path clip-path="url(#p2efb07a998)" d="M 80.649588 527.917482 
L 80.649588 527.365233 
" style="fill:none;stroke:#009afa;stroke-linecap:round;"/>
   </g>
   <g id="line2d_43">
    <path clip-path="url(#p2efb07a998)" d="M 99.890399 521.808752 
L 99.890399 521.524486 
" style="fill:none;stroke:#009afa;stroke-linecap:round;"/>
   </g>
   <g id="line2d_44">
    <path clip-path="url(#p2efb07a998)" d="M 134.105821 512.636113 
L 134.105821 501.050051 
" style="fill:none;stroke:#009afa;stroke-linecap:round;"/>
   </g>
   <g id="line2d_45">
    <path clip-path="url(#p2efb07a998)" d="M 194.950543 483.470683 
L 194.950543 470.055082 
" style="fill:none;stroke:#009afa;stroke-linecap:round;"/>
   </g>
   <g id="line2d_46">
    <path clip-path="url(#p2efb07a998)" d="M 303.149357 417.537609 
L 303.149357 398.768935 
" style="fill:none;stroke:#009afa;stroke-linecap:round;"/>
   </g>
   <g id="line2d_47">
    <path clip-path="url(#p2efb07a998)" d="M 495.557147 319.268195 
L 495.557147 296.129005 
" style="fill:none;stroke:#009afa;stroke-linecap:round;"/>
   </g>
   <g id="line2d_48">
    <path clip-path="url(#p2efb07a998)" d="M 837.711844 84.73712 
L 837.711844 33.22042 
" style="fill:none;stroke:#009afa;stroke-linecap:round;"/>
   </g>
   <g id="PathCollection_1">
    <defs>
     <path d="M 2 0 
L -2 -0 
" id="m6f5fba3da8" style="stroke:#009afa;stroke-width:1.5;"/>
    </defs>
    <g clip-path="url(#p2efb07a998)">
     <use style="fill:#009afa;stroke:#009afa;stroke-width:1.5;" x="55.928156" xlink:href="#m6f5fba3da8" y="534.079528"/>
     <use style="fill:#009afa;stroke:#009afa;stroke-width:1.5;" x="55.928156" xlink:href="#m6f5fba3da8" y="534.077718"/>
     <use style="fill:#009afa;stroke:#009afa;stroke-width:1.5;" x="55.928782" xlink:href="#m6f5fba3da8" y="534.07958"/>
     <use style="fill:#009afa;stroke:#009afa;stroke-width:1.5;" x="55.928782" xlink:href="#m6f5fba3da8" y="534.076202"/>
     <use style="fill:#009afa;stroke:#009afa;stroke-width:1.5;" x="55.929876" xlink:href="#m6f5fba3da8" y="534.078972"/>
     <use style="fill:#009afa;stroke:#009afa;stroke-width:1.5;" x="55.929876" xlink:href="#m6f5fba3da8" y="534.078799"/>
     <use style="fill:#009afa;stroke:#009afa;stroke-width:1.5;" x="55.931831" xlink:href="#m6f5fba3da8" y="534.078881"/>
     <use style="fill:#009afa;stroke:#009afa;stroke-width:1.5;" x="55.931831" xlink:href="#m6f5fba3da8" y="534.078621"/>
     <use style="fill:#009afa;stroke:#009afa;stroke-width:1.5;" x="55.935192" xlink:href="#m6f5fba3da8" y="534.078648"/>
     <use style="fill:#009afa;stroke:#009afa;stroke-width:1.5;" x="55.935192" xlink:href="#m6f5fba3da8" y="534.078394"/>
     <use style="fill:#009afa;stroke:#009afa;stroke-width:1.5;" x="55.94129" xlink:href="#m6f5fba3da8" y="534.078401"/>
     <use style="fill:#009afa;stroke:#009afa;stroke-width:1.5;" x="55.94129" xlink:href="#m6f5fba3da8" y="534.07793"/>
     <use style="fill:#009afa;stroke:#009afa;stroke-width:1.5;" x="55.952157" xlink:href="#m6f5fba3da8" y="534.077736"/>
     <use style="fill:#009afa;stroke:#009afa;stroke-width:1.5;" x="55.952157" xlink:href="#m6f5fba3da8" y="534.076474"/>
     <use style="fill:#009afa;stroke:#009afa;stroke-width:1.5;" x="55.971389" xlink:href="#m6f5fba3da8" y="534.075496"/>
     <use style="fill:#009afa;stroke:#009afa;stroke-width:1.5;" x="55.971389" xlink:href="#m6f5fba3da8" y="534.07136"/>
     <use style="fill:#009afa;stroke:#009afa;stroke-width:1.5;" x="56.005553" xlink:href="#m6f5fba3da8" y="534.072892"/>
     <use style="fill:#009afa;stroke:#009afa;stroke-width:1.5;" x="56.005553" xlink:href="#m6f5fba3da8" y="534.067673"/>
     <use style="fill:#009afa;stroke:#009afa;stroke-width:1.5;" x="56.066454" xlink:href="#m6f5fba3da8" y="534.063428"/>
     <use style="fill:#009afa;stroke:#009afa;stroke-width:1.5;" x="56.066454" xlink:href="#m6f5fba3da8" y="534.062121"/>
     <use style="fill:#009afa;stroke:#009afa;stroke-width:1.5;" x="56.174653" xlink:href="#m6f5fba3da8" y="534.047118"/>
     <use style="fill:#009afa;stroke:#009afa;stroke-width:1.5;" x="56.174653" xlink:href="#m6f5fba3da8" y="534.043941"/>
     <use style="fill:#009afa;stroke:#009afa;stroke-width:1.5;" x="56.36705" xlink:href="#m6f5fba3da8" y="534.0193"/>
     <use style="fill:#009afa;stroke:#009afa;stroke-width:1.5;" x="56.36705" xlink:href="#m6f5fba3da8" y="534.002667"/>
     <use style="fill:#009afa;stroke:#009afa;stroke-width:1.5;" x="56.709159" xlink:href="#m6f5fba3da8" y="533.960874"/>
     <use style="fill:#009afa;stroke:#009afa;stroke-width:1.5;" x="56.709159" xlink:href="#m6f5fba3da8" y="533.949874"/>
     <use style="fill:#009afa;stroke:#009afa;stroke-width:1.5;" x="57.317622" xlink:href="#m6f5fba3da8" y="533.84445"/>
     <use style="fill:#009afa;stroke:#009afa;stroke-width:1.5;" x="57.317622" xlink:href="#m6f5fba3da8" y="533.813334"/>
     <use style="fill:#009afa;stroke:#009afa;stroke-width:1.5;" x="58.399612" xlink:href="#m6f5fba3da8" y="533.747084"/>
     <use style="fill:#009afa;stroke:#009afa;stroke-width:1.5;" x="58.399612" xlink:href="#m6f5fba3da8" y="533.218823"/>
     <use style="fill:#009afa;stroke:#009afa;stroke-width:1.5;" x="60.323739" xlink:href="#m6f5fba3da8" y="533.293753"/>
     <use style="fill:#009afa;stroke:#009afa;stroke-width:1.5;" x="60.323739" xlink:href="#m6f5fba3da8" y="532.9559"/>
     <use style="fill:#009afa;stroke:#009afa;stroke-width:1.5;" x="63.745219" xlink:href="#m6f5fba3da8" y="532.413811"/>
     <use style="fill:#009afa;stroke:#009afa;stroke-width:1.5;" x="63.745219" xlink:href="#m6f5fba3da8" y="532.059131"/>
     <use style="fill:#009afa;stroke:#009afa;stroke-width:1.5;" x="69.829691" xlink:href="#m6f5fba3da8" y="530.851966"/>
     <use style="fill:#009afa;stroke:#009afa;stroke-width:1.5;" x="69.829691" xlink:href="#m6f5fba3da8" y="530.535551"/>
     <use style="fill:#009afa;stroke:#009afa;stroke-width:1.5;" x="80.649588" xlink:href="#m6f5fba3da8" y="527.917482"/>
     <use style="fill:#009afa;stroke:#009afa;stroke-width:1.5;" x="80.649588" xlink:href="#m6f5fba3da8" y="527.365233"/>
     <use style="fill:#009afa;stroke:#009afa;stroke-width:1.5;" x="99.890399" xlink:href="#m6f5fba3da8" y="521.808752"/>
     <use style="fill:#009afa;stroke:#009afa;stroke-width:1.5;" x="99.890399" xlink:href="#m6f5fba3da8" y="521.524486"/>
     <use style="fill:#009afa;stroke:#009afa;stroke-width:1.5;" x="134.105821" xlink:href="#m6f5fba3da8" y="512.636113"/>
     <use style="fill:#009afa;stroke:#009afa;stroke-width:1.5;" x="134.105821" xlink:href="#m6f5fba3da8" y="501.050051"/>
     <use style="fill:#009afa;stroke:#009afa;stroke-width:1.5;" x="194.950543" xlink:href="#m6f5fba3da8" y="483.470683"/>
     <use style="fill:#009afa;stroke:#009afa;stroke-width:1.5;" x="194.950543" xlink:href="#m6f5fba3da8" y="470.055082"/>
     <use style="fill:#009afa;stroke:#009afa;stroke-width:1.5;" x="303.149357" xlink:href="#m6f5fba3da8" y="417.537609"/>
     <use style="fill:#009afa;stroke:#009afa;stroke-width:1.5;" x="303.149357" xlink:href="#m6f5fba3da8" y="398.768935"/>
     <use style="fill:#009afa;stroke:#009afa;stroke-width:1.5;" x="495.557147" xlink:href="#m6f5fba3da8" y="319.268195"/>
     <use style="fill:#009afa;stroke:#009afa;stroke-width:1.5;" x="495.557147" xlink:href="#m6f5fba3da8" y="296.129005"/>
     <use style="fill:#009afa;stroke:#009afa;stroke-width:1.5;" x="837.711844" xlink:href="#m6f5fba3da8" y="84.73712"/>
     <use style="fill:#009afa;stroke:#009afa;stroke-width:1.5;" x="837.711844" xlink:href="#m6f5fba3da8" y="33.22042"/>
    </g>
   </g>
   <g id="patch_3">
    <path d="M 32.474646 549.105354 
L 32.474646 18.194646 
" style="fill:none;stroke:#000000;stroke-linecap:square;stroke-linejoin:miter;"/>
   </g>
   <g id="patch_4">
    <path d="M 32.474646 549.105354 
L 861.165354 549.105354 
" style="fill:none;stroke:#000000;stroke-linecap:square;stroke-linejoin:miter;"/>
   </g>
   <g id="text_14">
    <!-- Minimize_linear_on_simplex_lInf -->
    <defs>
     <path d="M 9.8125 72.90625 
L 24.515625 72.90625 
L 43.109375 23.296875 
L 61.8125 72.90625 
L 76.515625 72.90625 
L 76.515625 0 
L 66.890625 0 
L 66.890625 64.015625 
L 48.09375 14.015625 
L 38.1875 14.015625 
L 19.390625 64.015625 
L 19.390625 0 
L 9.8125 0 
z
" id="DejaVuSans-77"/>
     <path d="M 9.421875 54.6875 
L 18.40625 54.6875 
L 18.40625 0 
L 9.421875 0 
z
M 9.421875 75.984375 
L 18.40625 75.984375 
L 18.40625 64.59375 
L 9.421875 64.59375 
z
" id="DejaVuSans-105"/>
     <path d="M 52 44.1875 
Q 55.375 50.25 60.0625 53.125 
Q 64.75 56 71.09375 56 
Q 79.640625 56 84.28125 50.015625 
Q 88.921875 44.046875 88.921875 33.015625 
L 88.921875 0 
L 79.890625 0 
L 79.890625 32.71875 
Q 79.890625 40.578125 77.09375 44.375 
Q 74.3125 48.1875 68.609375 48.1875 
Q 61.625 48.1875 57.5625 43.546875 
Q 53.515625 38.921875 53.515625 30.90625 
L 53.515625 0 
L 44.484375 0 
L 44.484375 32.71875 
Q 44.484375 40.625 41.703125 44.40625 
Q 38.921875 48.1875 33.109375 48.1875 
Q 26.21875 48.1875 22.15625 43.53125 
Q 18.109375 38.875 18.109375 30.90625 
L 18.109375 0 
L 9.078125 0 
L 9.078125 54.6875 
L 18.109375 54.6875 
L 18.109375 46.1875 
Q 21.1875 51.21875 25.484375 53.609375 
Q 29.78125 56 35.6875 56 
Q 41.65625 56 45.828125 52.96875 
Q 50 49.953125 52 44.1875 
z
" id="DejaVuSans-109"/>
     <path d="M 5.515625 54.6875 
L 48.1875 54.6875 
L 48.1875 46.484375 
L 14.40625 7.171875 
L 48.1875 7.171875 
L 48.1875 0 
L 4.296875 0 
L 4.296875 8.203125 
L 38.09375 47.515625 
L 5.515625 47.515625 
z
" id="DejaVuSans-122"/>
     <path d="M 56.203125 29.59375 
L 56.203125 25.203125 
L 14.890625 25.203125 
Q 15.484375 15.921875 20.484375 11.0625 
Q 25.484375 6.203125 34.421875 6.203125 
Q 39.59375 6.203125 44.453125 7.46875 
Q 49.3125 8.734375 54.109375 11.28125 
L 54.109375 2.78125 
Q 49.265625 0.734375 44.1875 -0.34375 
Q 39.109375 -1.421875 33.890625 -1.421875 
Q 20.796875 -1.421875 13.15625 6.1875 
Q 5.515625 13.8125 5.515625 26.8125 
Q 5.515625 40.234375 12.765625 48.109375 
Q 20.015625 56 32.328125 56 
Q 43.359375 56 49.78125 48.890625 
Q 56.203125 41.796875 56.203125 29.59375 
z
M 47.21875 32.234375 
Q 47.125 39.59375 43.09375 43.984375 
Q 39.0625 48.390625 32.421875 48.390625 
Q 24.90625 48.390625 20.390625 44.140625 
Q 15.875 39.890625 15.1875 32.171875 
z
" id="DejaVuSans-101"/>
     <path d="M 50.984375 -16.609375 
L 50.984375 -23.578125 
L -0.984375 -23.578125 
L -0.984375 -16.609375 
z
" id="DejaVuSans-95"/>
     <path d="M 9.421875 75.984375 
L 18.40625 75.984375 
L 18.40625 0 
L 9.421875 0 
z
" id="DejaVuSans-108"/>
     <path d="M 34.28125 27.484375 
Q 23.390625 27.484375 19.1875 25 
Q 14.984375 22.515625 14.984375 16.5 
Q 14.984375 11.71875 18.140625 8.90625 
Q 21.296875 6.109375 26.703125 6.109375 
Q 34.1875 6.109375 38.703125 11.40625 
Q 43.21875 16.703125 43.21875 25.484375 
L 43.21875 27.484375 
z
M 52.203125 31.203125 
L 52.203125 0 
L 43.21875 0 
L 43.21875 8.296875 
Q 40.140625 3.328125 35.546875 0.953125 
Q 30.953125 -1.421875 24.3125 -1.421875 
Q 15.921875 -1.421875 10.953125 3.296875 
Q 6 8.015625 6 15.921875 
Q 6 25.140625 12.171875 29.828125 
Q 18.359375 34.515625 30.609375 34.515625 
L 43.21875 34.515625 
L 43.21875 35.40625 
Q 43.21875 41.609375 39.140625 45 
Q 35.0625 48.390625 27.6875 48.390625 
Q 23 48.390625 18.546875 47.265625 
Q 14.109375 46.140625 10.015625 43.890625 
L 10.015625 52.203125 
Q 14.9375 54.109375 19.578125 55.046875 
Q 24.21875 56 28.609375 56 
Q 40.484375 56 46.34375 49.84375 
Q 52.203125 43.703125 52.203125 31.203125 
z
" id="DejaVuSans-97"/>
     <path d="M 41.109375 46.296875 
Q 39.59375 47.171875 37.8125 47.578125 
Q 36.03125 48 33.890625 48 
Q 26.265625 48 22.1875 43.046875 
Q 18.109375 38.09375 18.109375 28.8125 
L 18.109375 0 
L 9.078125 0 
L 9.078125 54.6875 
L 18.109375 54.6875 
L 18.109375 46.1875 
Q 20.953125 51.171875 25.484375 53.578125 
Q 30.03125 56 36.53125 56 
Q 37.453125 56 38.578125 55.875 
Q 39.703125 55.765625 41.0625 55.515625 
z
" id="DejaVuSans-114"/>
     <path d="M 30.609375 48.390625 
Q 23.390625 48.390625 19.1875 42.75 
Q 14.984375 37.109375 14.984375 27.296875 
Q 14.984375 17.484375 19.15625 11.84375 
Q 23.34375 6.203125 30.609375 6.203125 
Q 37.796875 6.203125 41.984375 11.859375 
Q 46.1875 17.53125 46.1875 27.296875 
Q 46.1875 37.015625 41.984375 42.703125 
Q 37.796875 48.390625 30.609375 48.390625 
z
M 30.609375 56 
Q 42.328125 56 49.015625 48.375 
Q 55.71875 40.765625 55.71875 27.296875 
Q 55.71875 13.875 49.015625 6.21875 
Q 42.328125 -1.421875 30.609375 -1.421875 
Q 18.84375 -1.421875 12.171875 6.21875 
Q 5.515625 13.875 5.515625 27.296875 
Q 5.515625 40.765625 12.171875 48.375 
Q 18.84375 56 30.609375 56 
z
" id="DejaVuSans-111"/>
     <path d="M 18.109375 8.203125 
L 18.109375 -20.796875 
L 9.078125 -20.796875 
L 9.078125 54.6875 
L 18.109375 54.6875 
L 18.109375 46.390625 
Q 20.953125 51.265625 25.265625 53.625 
Q 29.59375 56 35.59375 56 
Q 45.5625 56 51.78125 48.09375 
Q 58.015625 40.1875 58.015625 27.296875 
Q 58.015625 14.40625 51.78125 6.484375 
Q 45.5625 -1.421875 35.59375 -1.421875 
Q 29.59375 -1.421875 25.265625 0.953125 
Q 20.953125 3.328125 18.109375 8.203125 
z
M 48.6875 27.296875 
Q 48.6875 37.203125 44.609375 42.84375 
Q 40.53125 48.484375 33.40625 48.484375 
Q 26.265625 48.484375 22.1875 42.84375 
Q 18.109375 37.203125 18.109375 27.296875 
Q 18.109375 17.390625 22.1875 11.75 
Q 26.265625 6.109375 33.40625 6.109375 
Q 40.53125 6.109375 44.609375 11.75 
Q 48.6875 17.390625 48.6875 27.296875 
z
" id="DejaVuSans-112"/>
     <path d="M 54.890625 54.6875 
L 35.109375 28.078125 
L 55.90625 0 
L 45.3125 0 
L 29.390625 21.484375 
L 13.484375 0 
L 2.875 0 
L 24.125 28.609375 
L 4.6875 54.6875 
L 15.28125 54.6875 
L 29.78125 35.203125 
L 44.28125 54.6875 
z
" id="DejaVuSans-120"/>
     <path d="M 9.8125 72.90625 
L 19.671875 72.90625 
L 19.671875 0 
L 9.8125 0 
z
" id="DejaVuSans-73"/>
     <path d="M 37.109375 75.984375 
L 37.109375 68.5 
L 28.515625 68.5 
Q 23.6875 68.5 21.796875 66.546875 
Q 19.921875 64.59375 19.921875 59.515625 
L 19.921875 54.6875 
L 34.71875 54.6875 
L 34.71875 47.703125 
L 19.921875 47.703125 
L 19.921875 0 
L 10.890625 0 
L 10.890625 47.703125 
L 2.296875 47.703125 
L 2.296875 54.6875 
L 10.890625 54.6875 
L 10.890625 58.5 
Q 10.890625 67.625 15.140625 71.796875 
Q 19.390625 75.984375 28.609375 75.984375 
z
" id="DejaVuSans-102"/>
    </defs>
    <g transform="translate(335.033281 12.194646)scale(0.14 -0.14)">
     <use xlink:href="#DejaVuSans-77"/>
     <use x="86.279297" xlink:href="#DejaVuSans-105"/>
     <use x="114.0625" xlink:href="#DejaVuSans-110"/>
     <use x="177.441406" xlink:href="#DejaVuSans-105"/>
     <use x="205.224609" xlink:href="#DejaVuSans-109"/>
     <use x="302.636719" xlink:href="#DejaVuSans-105"/>
     <use x="330.419922" xlink:href="#DejaVuSans-122"/>
     <use x="382.910156" xlink:href="#DejaVuSans-101"/>
     <use x="444.433594" xlink:href="#DejaVuSans-95"/>
     <use x="494.433594" xlink:href="#DejaVuSans-108"/>
     <use x="522.216797" xlink:href="#DejaVuSans-105"/>
     <use x="550" xlink:href="#DejaVuSans-110"/>
     <use x="613.378906" xlink:href="#DejaVuSans-101"/>
     <use x="674.902344" xlink:href="#DejaVuSans-97"/>
     <use x="736.181641" xlink:href="#DejaVuSans-114"/>
     <use x="777.294922" xlink:href="#DejaVuSans-95"/>
     <use x="827.294922" xlink:href="#DejaVuSans-111"/>
     <use x="888.476562" xlink:href="#DejaVuSans-110"/>
     <use x="951.855469" xlink:href="#DejaVuSans-95"/>
     <use x="1001.855469" xlink:href="#DejaVuSans-115"/>
     <use x="1053.955078" xlink:href="#DejaVuSans-105"/>
     <use x="1081.738281" xlink:href="#DejaVuSans-109"/>
     <use x="1179.150391" xlink:href="#DejaVuSans-112"/>
     <use x="1242.626953" xlink:href="#DejaVuSans-108"/>
     <use x="1270.410156" xlink:href="#DejaVuSans-101"/>
     <use x="1331.917969" xlink:href="#DejaVuSans-120"/>
     <use x="1391.097656" xlink:href="#DejaVuSans-95"/>
     <use x="1441.097656" xlink:href="#DejaVuSans-108"/>
     <use x="1468.880859" xlink:href="#DejaVuSans-73"/>
     <use x="1498.373047" xlink:href="#DejaVuSans-110"/>
     <use x="1561.751953" xlink:href="#DejaVuSans-102"/>
    </g>
   </g>
   <g id="legend_1">
    <g id="patch_5">
     <path d="M 38.074646 36.337146 
L 73.499646 36.337146 
Q 75.099646 36.337146 75.099646 34.737146 
L 75.099646 23.794646 
Q 75.099646 22.194646 73.499646 22.194646 
L 38.074646 22.194646 
Q 36.474646 22.194646 36.474646 23.794646 
L 36.474646 34.737146 
Q 36.474646 36.337146 38.074646 36.337146 
z
" style="fill:#ffffff;stroke:#000000;stroke-linejoin:miter;"/>
    </g>
    <g id="line2d_49">
     <path d="M 39.674646 28.673396 
L 55.674646 28.673396 
" style="fill:none;stroke:#009afa;stroke-linecap:square;"/>
    </g>
    <g id="line2d_50"/>
    <g id="text_15">
     <!-- y1 -->
     <defs>
      <path d="M 32.171875 -5.078125 
Q 28.375 -14.84375 24.75 -17.8125 
Q 21.140625 -20.796875 15.09375 -20.796875 
L 7.90625 -20.796875 
L 7.90625 -13.28125 
L 13.1875 -13.28125 
Q 16.890625 -13.28125 18.9375 -11.515625 
Q 21 -9.765625 23.484375 -3.21875 
L 25.09375 0.875 
L 2.984375 54.6875 
L 12.5 54.6875 
L 29.59375 11.921875 
L 46.6875 54.6875 
L 56.203125 54.6875 
z
" id="DejaVuSans-121"/>
     </defs>
     <g transform="translate(62.074646 31.473396)scale(0.08 -0.08)">
      <use xlink:href="#DejaVuSans-121"/>
      <use x="59.179688" xlink:href="#DejaVuSans-49"/>
     </g>
    </g>
   </g>
  </g>
 </g>
 <defs>
  <clipPath id="p2efb07a998">
   <rect height="530.910709" width="828.690709" x="32.474646" y="18.194646"/>
  </clipPath>
 </defs>
</svg>
