<?xml version="1.0" encoding="utf-8" standalone="no"?>
<!DOCTYPE svg PUBLIC "-//W3C//DTD SVG 1.1//EN"
  "http://www.w3.org/Graphics/SVG/1.1/DTD/svg11.dtd">
<!-- Created with matplotlib (https://matplotlib.org/) -->
<svg height="576pt" version="1.1" viewBox="0 0 864 576" width="864pt" xmlns="http://www.w3.org/2000/svg" xmlns:xlink="http://www.w3.org/1999/xlink">
 <defs>
  <style type="text/css">
*{stroke-linecap:butt;stroke-linejoin:round;}
  </style>
 </defs>
 <g id="figure_1">
  <g id="patch_1">
   <path d="M 0 576 
L 864 576 
L 864 0 
L 0 0 
z
" style="fill:#ffffff;"/>
  </g>
  <g id="axes_1">
   <g id="patch_2">
    <path d="M 37.514646 549.105354 
L 861.165354 549.105354 
L 861.165354 18.194646 
L 37.514646 18.194646 
z
" style="fill:#ffffff;"/>
   </g>
   <g id="matplotlib.axis_1">
    <g id="xtick_1">
     <g id="line2d_1">
      <path clip-path="url(#p3bbd362c68)" d="M 60.824738 549.105354 
L 60.824738 18.194646 
" style="fill:none;stroke:#000000;stroke-linecap:square;stroke-opacity:0.1;stroke-width:0.5;"/>
     </g>
     <g id="line2d_2">
      <defs>
       <path d="M 0 0 
L 0 -3.5 
" id="md80a6f648f" style="stroke:#000000;stroke-width:0.8;"/>
      </defs>
      <g>
       <use style="stroke:#000000;stroke-width:0.8;" x="60.824738" xlink:href="#md80a6f648f" y="549.105354"/>
      </g>
     </g>
     <g id="text_1">
      <!-- 0 -->
      <defs>
       <path d="M 31.78125 66.40625 
Q 24.171875 66.40625 20.328125 58.90625 
Q 16.5 51.421875 16.5 36.375 
Q 16.5 21.390625 20.328125 13.890625 
Q 24.171875 6.390625 31.78125 6.390625 
Q 39.453125 6.390625 43.28125 13.890625 
Q 47.125 21.390625 47.125 36.375 
Q 47.125 51.421875 43.28125 58.90625 
Q 39.453125 66.40625 31.78125 66.40625 
z
M 31.78125 74.21875 
Q 44.046875 74.21875 50.515625 64.515625 
Q 56.984375 54.828125 56.984375 36.375 
Q 56.984375 17.96875 50.515625 8.265625 
Q 44.046875 -1.421875 31.78125 -1.421875 
Q 19.53125 -1.421875 13.0625 8.265625 
Q 6.59375 17.96875 6.59375 36.375 
Q 6.59375 54.828125 13.0625 64.515625 
Q 19.53125 74.21875 31.78125 74.21875 
z
" id="DejaVuSans-48"/>
      </defs>
      <g transform="translate(58.279738 558.684104)scale(0.08 -0.08)">
       <use xlink:href="#DejaVuSans-48"/>
      </g>
     </g>
    </g>
    <g id="xtick_2">
     <g id="line2d_3">
      <path clip-path="url(#p3bbd362c68)" d="M 255.082175 549.105354 
L 255.082175 18.194646 
" style="fill:none;stroke:#000000;stroke-linecap:square;stroke-opacity:0.1;stroke-width:0.5;"/>
     </g>
     <g id="line2d_4">
      <g>
       <use style="stroke:#000000;stroke-width:0.8;" x="255.082175" xlink:href="#md80a6f648f" y="549.105354"/>
      </g>
     </g>
     <g id="text_2">
      <!-- 2.5×10⁶ -->
      <defs>
       <path d="M 19.1875 8.296875 
L 53.609375 8.296875 
L 53.609375 0 
L 7.328125 0 
L 7.328125 8.296875 
Q 12.9375 14.109375 22.625 23.890625 
Q 32.328125 33.6875 34.8125 36.53125 
Q 39.546875 41.84375 41.421875 45.53125 
Q 43.3125 49.21875 43.3125 52.78125 
Q 43.3125 58.59375 39.234375 62.25 
Q 35.15625 65.921875 28.609375 65.921875 
Q 23.96875 65.921875 18.8125 64.3125 
Q 13.671875 62.703125 7.8125 59.421875 
L 7.8125 69.390625 
Q 13.765625 71.78125 18.9375 73 
Q 24.125 74.21875 28.421875 74.21875 
Q 39.75 74.21875 46.484375 68.546875 
Q 53.21875 62.890625 53.21875 53.421875 
Q 53.21875 48.921875 51.53125 44.890625 
Q 49.859375 40.875 45.40625 35.40625 
Q 44.1875 33.984375 37.640625 27.21875 
Q 31.109375 20.453125 19.1875 8.296875 
z
" id="DejaVuSans-50"/>
       <path d="M 10.6875 12.40625 
L 21 12.40625 
L 21 0 
L 10.6875 0 
z
" id="DejaVuSans-46"/>
       <path d="M 10.796875 72.90625 
L 49.515625 72.90625 
L 49.515625 64.59375 
L 19.828125 64.59375 
L 19.828125 46.734375 
Q 21.96875 47.46875 24.109375 47.828125 
Q 26.265625 48.1875 28.421875 48.1875 
Q 40.625 48.1875 47.75 41.5 
Q 54.890625 34.8125 54.890625 23.390625 
Q 54.890625 11.625 47.5625 5.09375 
Q 40.234375 -1.421875 26.90625 -1.421875 
Q 22.3125 -1.421875 17.546875 -0.640625 
Q 12.796875 0.140625 7.71875 1.703125 
L 7.71875 11.625 
Q 12.109375 9.234375 16.796875 8.0625 
Q 21.484375 6.890625 26.703125 6.890625 
Q 35.15625 6.890625 40.078125 11.328125 
Q 45.015625 15.765625 45.015625 23.390625 
Q 45.015625 31 40.078125 35.4375 
Q 35.15625 39.890625 26.703125 39.890625 
Q 22.75 39.890625 18.8125 39.015625 
Q 14.890625 38.140625 10.796875 36.28125 
z
" id="DejaVuSans-53"/>
       <path d="M 70.125 53.71875 
L 47.796875 31.296875 
L 70.125 8.984375 
L 64.3125 3.078125 
L 41.890625 25.484375 
L 19.484375 3.078125 
L 13.71875 8.984375 
L 35.984375 31.296875 
L 13.71875 53.71875 
L 19.484375 59.625 
L 41.890625 37.203125 
L 64.3125 59.625 
z
" id="DejaVuSans-215"/>
       <path d="M 12.40625 8.296875 
L 28.515625 8.296875 
L 28.515625 63.921875 
L 10.984375 60.40625 
L 10.984375 69.390625 
L 28.421875 72.90625 
L 38.28125 72.90625 
L 38.28125 8.296875 
L 54.390625 8.296875 
L 54.390625 0 
L 12.40625 0 
z
" id="DejaVuSans-49"/>
       <path d="M 21.234375 55.328125 
Q 16.9375 55.328125 14.453125 52.78125 
Q 11.96875 50.203125 11.96875 45.75 
Q 11.96875 41.359375 14.453125 38.8125 
Q 16.9375 36.234375 21.234375 36.234375 
Q 25.484375 36.234375 27.984375 38.8125 
Q 30.46875 41.359375 30.46875 45.75 
Q 30.46875 50.203125 27.984375 52.78125 
Q 25.484375 55.328125 21.234375 55.328125 
z
M 33.84375 72.609375 
L 33.84375 67.578125 
Q 31.453125 68.5625 29 69.046875 
Q 26.5625 69.578125 24.171875 69.578125 
Q 17.921875 69.578125 14.59375 65.921875 
Q 11.28125 62.203125 10.796875 54.734375 
Q 12.640625 57.125 15.4375 58.40625 
Q 18.265625 59.671875 21.578125 59.671875 
Q 28.65625 59.671875 32.765625 55.953125 
Q 36.859375 52.203125 36.859375 45.75 
Q 36.859375 39.546875 32.5625 35.6875 
Q 28.328125 31.890625 21.234375 31.890625 
Q 13.09375 31.890625 8.796875 37.296875 
Q 4.5 42.71875 4.5 53.078125 
Q 4.5 62.75 9.765625 68.453125 
Q 15.046875 74.21875 23.921875 74.21875 
Q 26.3125 74.21875 28.765625 73.828125 
Q 31.203125 73.390625 33.84375 72.609375 
z
" id="DejaVuSans-8310"/>
      </defs>
      <g transform="translate(238.6753 558.684104)scale(0.08 -0.08)">
       <use xlink:href="#DejaVuSans-50"/>
       <use x="63.623047" xlink:href="#DejaVuSans-46"/>
       <use x="95.410156" xlink:href="#DejaVuSans-53"/>
       <use x="159.033203" xlink:href="#DejaVuSans-215"/>
       <use x="242.822266" xlink:href="#DejaVuSans-49"/>
       <use x="306.445312" xlink:href="#DejaVuSans-48"/>
       <use x="370.068359" xlink:href="#DejaVuSans-8310"/>
      </g>
     </g>
    </g>
    <g id="xtick_3">
     <g id="line2d_5">
      <path clip-path="url(#p3bbd362c68)" d="M 449.339611 549.105354 
L 449.339611 18.194646 
" style="fill:none;stroke:#000000;stroke-linecap:square;stroke-opacity:0.1;stroke-width:0.5;"/>
     </g>
     <g id="line2d_6">
      <g>
       <use style="stroke:#000000;stroke-width:0.8;" x="449.339611" xlink:href="#md80a6f648f" y="549.105354"/>
      </g>
     </g>
     <g id="text_3">
      <!-- 5.0×10⁶ -->
      <g transform="translate(432.932736 558.684104)scale(0.08 -0.08)">
       <use xlink:href="#DejaVuSans-53"/>
       <use x="63.623047" xlink:href="#DejaVuSans-46"/>
       <use x="95.410156" xlink:href="#DejaVuSans-48"/>
       <use x="159.033203" xlink:href="#DejaVuSans-215"/>
       <use x="242.822266" xlink:href="#DejaVuSans-49"/>
       <use x="306.445312" xlink:href="#DejaVuSans-48"/>
       <use x="370.068359" xlink:href="#DejaVuSans-8310"/>
      </g>
     </g>
    </g>
    <g id="xtick_4">
     <g id="line2d_7">
      <path clip-path="url(#p3bbd362c68)" d="M 643.597048 549.105354 
L 643.597048 18.194646 
" style="fill:none;stroke:#000000;stroke-linecap:square;stroke-opacity:0.1;stroke-width:0.5;"/>
     </g>
     <g id="line2d_8">
      <g>
       <use style="stroke:#000000;stroke-width:0.8;" x="643.597048" xlink:href="#md80a6f648f" y="549.105354"/>
      </g>
     </g>
     <g id="text_4">
      <!-- 7.5×10⁶ -->
      <defs>
       <path d="M 8.203125 72.90625 
L 55.078125 72.90625 
L 55.078125 68.703125 
L 28.609375 0 
L 18.3125 0 
L 43.21875 64.59375 
L 8.203125 64.59375 
z
" id="DejaVuSans-55"/>
      </defs>
      <g transform="translate(627.190173 558.684104)scale(0.08 -0.08)">
       <use xlink:href="#DejaVuSans-55"/>
       <use x="63.623047" xlink:href="#DejaVuSans-46"/>
       <use x="95.410156" xlink:href="#DejaVuSans-53"/>
       <use x="159.033203" xlink:href="#DejaVuSans-215"/>
       <use x="242.822266" xlink:href="#DejaVuSans-49"/>
       <use x="306.445312" xlink:href="#DejaVuSans-48"/>
       <use x="370.068359" xlink:href="#DejaVuSans-8310"/>
      </g>
     </g>
    </g>
    <g id="xtick_5">
     <g id="line2d_9">
      <path clip-path="url(#p3bbd362c68)" d="M 837.854485 549.105354 
L 837.854485 18.194646 
" style="fill:none;stroke:#000000;stroke-linecap:square;stroke-opacity:0.1;stroke-width:0.5;"/>
     </g>
     <g id="line2d_10">
      <g>
       <use style="stroke:#000000;stroke-width:0.8;" x="837.854485" xlink:href="#md80a6f648f" y="549.105354"/>
      </g>
     </g>
     <g id="text_5">
      <!-- 1.0×10⁷ -->
      <defs>
       <path d="M 5.28125 73.390625 
L 35.40625 73.390625 
L 35.40625 71.046875 
L 18.40625 32.625 
L 11.765625 32.625 
L 27.78125 68.75 
L 5.28125 68.75 
z
" id="DejaVuSans-8311"/>
      </defs>
      <g transform="translate(821.44761 558.684104)scale(0.08 -0.08)">
       <use xlink:href="#DejaVuSans-49"/>
       <use x="63.623047" xlink:href="#DejaVuSans-46"/>
       <use x="95.410156" xlink:href="#DejaVuSans-48"/>
       <use x="159.033203" xlink:href="#DejaVuSans-215"/>
       <use x="242.822266" xlink:href="#DejaVuSans-49"/>
       <use x="306.445312" xlink:href="#DejaVuSans-48"/>
       <use x="370.068359" xlink:href="#DejaVuSans-8311"/>
      </g>
     </g>
    </g>
    <g id="text_6">
     <!-- n -->
     <defs>
      <path d="M 54.890625 33.015625 
L 54.890625 0 
L 45.90625 0 
L 45.90625 32.71875 
Q 45.90625 40.484375 42.875 44.328125 
Q 39.84375 48.1875 33.796875 48.1875 
Q 26.515625 48.1875 22.3125 43.546875 
Q 18.109375 38.921875 18.109375 30.90625 
L 18.109375 0 
L 9.078125 0 
L 9.078125 54.6875 
L 18.109375 54.6875 
L 18.109375 46.1875 
Q 21.34375 51.125 25.703125 53.5625 
Q 30.078125 56 35.796875 56 
Q 45.21875 56 50.046875 50.171875 
Q 54.890625 44.34375 54.890625 33.015625 
z
" id="DejaVuSans-110"/>
     </defs>
     <g transform="translate(445.854375 572.706136)scale(0.11 -0.11)">
      <use xlink:href="#DejaVuSans-110"/>
     </g>
    </g>
   </g>
   <g id="matplotlib.axis_2">
    <g id="ytick_1">
     <g id="line2d_11">
      <path clip-path="url(#p3bbd362c68)" d="M 37.514646 525.480951 
L 861.165354 525.480951 
" style="fill:none;stroke:#000000;stroke-linecap:square;stroke-opacity:0.1;stroke-width:0.5;"/>
     </g>
     <g id="line2d_12">
      <defs>
       <path d="M 0 0 
L 3.5 0 
" id="m884cdec1b3" style="stroke:#000000;stroke-width:0.8;"/>
      </defs>
      <g>
       <use style="stroke:#000000;stroke-width:0.8;" x="37.514646" xlink:href="#m884cdec1b3" y="525.480951"/>
      </g>
     </g>
     <g id="text_7">
      <!-- 0.00 -->
      <g transform="translate(16.202146 528.520326)scale(0.08 -0.08)">
       <use xlink:href="#DejaVuSans-48"/>
       <use x="63.623047" xlink:href="#DejaVuSans-46"/>
       <use x="95.410156" xlink:href="#DejaVuSans-48"/>
       <use x="159.033203" xlink:href="#DejaVuSans-48"/>
      </g>
     </g>
    </g>
    <g id="ytick_2">
     <g id="line2d_13">
      <path clip-path="url(#p3bbd362c68)" d="M 37.514646 393.995355 
L 861.165354 393.995355 
" style="fill:none;stroke:#000000;stroke-linecap:square;stroke-opacity:0.1;stroke-width:0.5;"/>
     </g>
     <g id="line2d_14">
      <g>
       <use style="stroke:#000000;stroke-width:0.8;" x="37.514646" xlink:href="#m884cdec1b3" y="393.995355"/>
      </g>
     </g>
     <g id="text_8">
      <!-- 0.02 -->
      <g transform="translate(16.202146 397.03473)scale(0.08 -0.08)">
       <use xlink:href="#DejaVuSans-48"/>
       <use x="63.623047" xlink:href="#DejaVuSans-46"/>
       <use x="95.410156" xlink:href="#DejaVuSans-48"/>
       <use x="159.033203" xlink:href="#DejaVuSans-50"/>
      </g>
     </g>
    </g>
    <g id="ytick_3">
     <g id="line2d_15">
      <path clip-path="url(#p3bbd362c68)" d="M 37.514646 262.509758 
L 861.165354 262.509758 
" style="fill:none;stroke:#000000;stroke-linecap:square;stroke-opacity:0.1;stroke-width:0.5;"/>
     </g>
     <g id="line2d_16">
      <g>
       <use style="stroke:#000000;stroke-width:0.8;" x="37.514646" xlink:href="#m884cdec1b3" y="262.509758"/>
      </g>
     </g>
     <g id="text_9">
      <!-- 0.04 -->
      <defs>
       <path d="M 37.796875 64.3125 
L 12.890625 25.390625 
L 37.796875 25.390625 
z
M 35.203125 72.90625 
L 47.609375 72.90625 
L 47.609375 25.390625 
L 58.015625 25.390625 
L 58.015625 17.1875 
L 47.609375 17.1875 
L 47.609375 0 
L 37.796875 0 
L 37.796875 17.1875 
L 4.890625 17.1875 
L 4.890625 26.703125 
z
" id="DejaVuSans-52"/>
      </defs>
      <g transform="translate(16.202146 265.549133)scale(0.08 -0.08)">
       <use xlink:href="#DejaVuSans-48"/>
       <use x="63.623047" xlink:href="#DejaVuSans-46"/>
       <use x="95.410156" xlink:href="#DejaVuSans-48"/>
       <use x="159.033203" xlink:href="#DejaVuSans-52"/>
      </g>
     </g>
    </g>
    <g id="ytick_4">
     <g id="line2d_17">
      <path clip-path="url(#p3bbd362c68)" d="M 37.514646 131.024161 
L 861.165354 131.024161 
" style="fill:none;stroke:#000000;stroke-linecap:square;stroke-opacity:0.1;stroke-width:0.5;"/>
     </g>
     <g id="line2d_18">
      <g>
       <use style="stroke:#000000;stroke-width:0.8;" x="37.514646" xlink:href="#m884cdec1b3" y="131.024161"/>
      </g>
     </g>
     <g id="text_10">
      <!-- 0.06 -->
      <defs>
       <path d="M 33.015625 40.375 
Q 26.375 40.375 22.484375 35.828125 
Q 18.609375 31.296875 18.609375 23.390625 
Q 18.609375 15.53125 22.484375 10.953125 
Q 26.375 6.390625 33.015625 6.390625 
Q 39.65625 6.390625 43.53125 10.953125 
Q 47.40625 15.53125 47.40625 23.390625 
Q 47.40625 31.296875 43.53125 35.828125 
Q 39.65625 40.375 33.015625 40.375 
z
M 52.59375 71.296875 
L 52.59375 62.3125 
Q 48.875 64.0625 45.09375 64.984375 
Q 41.3125 65.921875 37.59375 65.921875 
Q 27.828125 65.921875 22.671875 59.328125 
Q 17.53125 52.734375 16.796875 39.40625 
Q 19.671875 43.65625 24.015625 45.921875 
Q 28.375 48.1875 33.59375 48.1875 
Q 44.578125 48.1875 50.953125 41.515625 
Q 57.328125 34.859375 57.328125 23.390625 
Q 57.328125 12.15625 50.6875 5.359375 
Q 44.046875 -1.421875 33.015625 -1.421875 
Q 20.359375 -1.421875 13.671875 8.265625 
Q 6.984375 17.96875 6.984375 36.375 
Q 6.984375 53.65625 15.1875 63.9375 
Q 23.390625 74.21875 37.203125 74.21875 
Q 40.921875 74.21875 44.703125 73.484375 
Q 48.484375 72.75 52.59375 71.296875 
z
" id="DejaVuSans-54"/>
      </defs>
      <g transform="translate(16.202146 134.063536)scale(0.08 -0.08)">
       <use xlink:href="#DejaVuSans-48"/>
       <use x="63.623047" xlink:href="#DejaVuSans-46"/>
       <use x="95.410156" xlink:href="#DejaVuSans-48"/>
       <use x="159.033203" xlink:href="#DejaVuSans-54"/>
      </g>
     </g>
    </g>
    <g id="text_11">
     <!-- t [s] -->
     <defs>
      <path d="M 18.3125 70.21875 
L 18.3125 54.6875 
L 36.8125 54.6875 
L 36.8125 47.703125 
L 18.3125 47.703125 
L 18.3125 18.015625 
Q 18.3125 11.328125 20.140625 9.421875 
Q 21.96875 7.515625 27.59375 7.515625 
L 36.8125 7.515625 
L 36.8125 0 
L 27.59375 0 
Q 17.1875 0 13.234375 3.875 
Q 9.28125 7.765625 9.28125 18.015625 
L 9.28125 47.703125 
L 2.6875 47.703125 
L 2.6875 54.6875 
L 9.28125 54.6875 
L 9.28125 70.21875 
z
" id="DejaVuSans-116"/>
      <path id="DejaVuSans-32"/>
      <path d="M 8.59375 75.984375 
L 29.296875 75.984375 
L 29.296875 69 
L 17.578125 69 
L 17.578125 -6.203125 
L 29.296875 -6.203125 
L 29.296875 -13.1875 
L 8.59375 -13.1875 
z
" id="DejaVuSans-91"/>
      <path d="M 44.28125 53.078125 
L 44.28125 44.578125 
Q 40.484375 46.53125 36.375 47.5 
Q 32.28125 48.484375 27.875 48.484375 
Q 21.1875 48.484375 17.84375 46.4375 
Q 14.5 44.390625 14.5 40.28125 
Q 14.5 37.15625 16.890625 35.375 
Q 19.28125 33.59375 26.515625 31.984375 
L 29.59375 31.296875 
Q 39.15625 29.25 43.1875 25.515625 
Q 47.21875 21.78125 47.21875 15.09375 
Q 47.21875 7.46875 41.1875 3.015625 
Q 35.15625 -1.421875 24.609375 -1.421875 
Q 20.21875 -1.421875 15.453125 -0.5625 
Q 10.6875 0.296875 5.421875 2 
L 5.421875 11.28125 
Q 10.40625 8.6875 15.234375 7.390625 
Q 20.0625 6.109375 24.8125 6.109375 
Q 31.15625 6.109375 34.5625 8.28125 
Q 37.984375 10.453125 37.984375 14.40625 
Q 37.984375 18.0625 35.515625 20.015625 
Q 33.0625 21.96875 24.703125 23.78125 
L 21.578125 24.515625 
Q 13.234375 26.265625 9.515625 29.90625 
Q 5.8125 33.546875 5.8125 39.890625 
Q 5.8125 47.609375 11.28125 51.796875 
Q 16.75 56 26.8125 56 
Q 31.78125 56 36.171875 55.265625 
Q 40.578125 54.546875 44.28125 53.078125 
z
" id="DejaVuSans-115"/>
      <path d="M 30.421875 75.984375 
L 30.421875 -13.1875 
L 9.71875 -13.1875 
L 9.71875 -6.203125 
L 21.390625 -6.203125 
L 21.390625 69 
L 9.71875 69 
L 9.71875 75.984375 
z
" id="DejaVuSans-93"/>
     </defs>
     <g transform="translate(9.914489 294.711016)rotate(-90)scale(0.11 -0.11)">
      <use xlink:href="#DejaVuSans-116"/>
      <use x="39.208984" xlink:href="#DejaVuSans-32"/>
      <use x="70.996094" xlink:href="#DejaVuSans-91"/>
      <use x="110.009766" xlink:href="#DejaVuSans-115"/>
      <use x="162.109375" xlink:href="#DejaVuSans-93"/>
     </g>
    </g>
   </g>
   <g id="line2d_19">
    <path clip-path="url(#p3bbd362c68)" d="M 60.825515 525.4732 
L 60.826136 525.47327 
L 60.827224 525.475113 
L 60.829167 525.475278 
L 60.832508 525.475822 
L 60.838569 525.472026 
L 60.84937 525.465844 
L 60.868485 525.467602 
L 60.902441 525.462698 
L 60.962971 525.452887 
L 61.070512 525.285134 
L 61.261739 525.399751 
L 61.601768 525.172883 
L 62.20653 525.157198 
L 63.281939 524.810899 
L 65.194365 524.392808 
L 68.595035 523.374229 
L 74.642502 521.750242 
L 85.396594 518.398239 
L 104.520384 510.930225 
L 138.527712 501.114594 
L 199.002384 483.504264 
L 306.543145 452.58463 
L 497.780734 344.094502 
L 837.854485 104.567704 
" style="fill:none;stroke:#009afa;stroke-linecap:round;"/>
   </g>
   <g id="line2d_20">
    <path clip-path="url(#p3bbd362c68)" d="M 60.825515 525.479784 
L 60.825515 525.466617 
" style="fill:none;stroke:#009afa;stroke-linecap:round;"/>
   </g>
   <g id="line2d_21">
    <path clip-path="url(#p3bbd362c68)" d="M 60.826136 525.488328 
L 60.826136 525.458212 
" style="fill:none;stroke:#009afa;stroke-linecap:round;"/>
   </g>
   <g id="line2d_22">
    <path clip-path="url(#p3bbd362c68)" d="M 60.827224 525.481955 
L 60.827224 525.468272 
" style="fill:none;stroke:#009afa;stroke-linecap:round;"/>
   </g>
   <g id="line2d_23">
    <path clip-path="url(#p3bbd362c68)" d="M 60.829167 525.479919 
L 60.829167 525.470638 
" style="fill:none;stroke:#009afa;stroke-linecap:round;"/>
   </g>
   <g id="line2d_24">
    <path clip-path="url(#p3bbd362c68)" d="M 60.832508 525.481762 
L 60.832508 525.469882 
" style="fill:none;stroke:#009afa;stroke-linecap:round;"/>
   </g>
   <g id="line2d_25">
    <path clip-path="url(#p3bbd362c68)" d="M 60.838569 525.480263 
L 60.838569 525.46379 
" style="fill:none;stroke:#009afa;stroke-linecap:round;"/>
   </g>
   <g id="line2d_26">
    <path clip-path="url(#p3bbd362c68)" d="M 60.84937 525.473567 
L 60.84937 525.458121 
" style="fill:none;stroke:#009afa;stroke-linecap:round;"/>
   </g>
   <g id="line2d_27">
    <path clip-path="url(#p3bbd362c68)" d="M 60.868485 525.470396 
L 60.868485 525.464808 
" style="fill:none;stroke:#009afa;stroke-linecap:round;"/>
   </g>
   <g id="line2d_28">
    <path clip-path="url(#p3bbd362c68)" d="M 60.902441 525.463195 
L 60.902441 525.4622 
" style="fill:none;stroke:#009afa;stroke-linecap:round;"/>
   </g>
   <g id="line2d_29">
    <path clip-path="url(#p3bbd362c68)" d="M 60.962971 525.454411 
L 60.962971 525.451363 
" style="fill:none;stroke:#009afa;stroke-linecap:round;"/>
   </g>
   <g id="line2d_30">
    <path clip-path="url(#p3bbd362c68)" d="M 61.070512 526.450489 
L 61.070512 524.119778 
" style="fill:none;stroke:#009afa;stroke-linecap:round;"/>
   </g>
   <g id="line2d_31">
    <path clip-path="url(#p3bbd362c68)" d="M 61.261739 525.402638 
L 61.261739 525.396864 
" style="fill:none;stroke:#009afa;stroke-linecap:round;"/>
   </g>
   <g id="line2d_32">
    <path clip-path="url(#p3bbd362c68)" d="M 61.601768 526.137675 
L 61.601768 524.208091 
" style="fill:none;stroke:#009afa;stroke-linecap:round;"/>
   </g>
   <g id="line2d_33">
    <path clip-path="url(#p3bbd362c68)" d="M 62.20653 525.635529 
L 62.20653 524.678867 
" style="fill:none;stroke:#009afa;stroke-linecap:round;"/>
   </g>
   <g id="line2d_34">
    <path clip-path="url(#p3bbd362c68)" d="M 63.281939 525.553978 
L 63.281939 524.06782 
" style="fill:none;stroke:#009afa;stroke-linecap:round;"/>
   </g>
   <g id="line2d_35">
    <path clip-path="url(#p3bbd362c68)" d="M 65.194365 524.902097 
L 65.194365 523.883518 
" style="fill:none;stroke:#009afa;stroke-linecap:round;"/>
   </g>
   <g id="line2d_36">
    <path clip-path="url(#p3bbd362c68)" d="M 68.595035 524.111567 
L 68.595035 522.636892 
" style="fill:none;stroke:#009afa;stroke-linecap:round;"/>
   </g>
   <g id="line2d_37">
    <path clip-path="url(#p3bbd362c68)" d="M 74.642502 522.501197 
L 74.642502 520.999287 
" style="fill:none;stroke:#009afa;stroke-linecap:round;"/>
   </g>
   <g id="line2d_38">
    <path clip-path="url(#p3bbd362c68)" d="M 85.396594 521.479672 
L 85.396594 515.316807 
" style="fill:none;stroke:#009afa;stroke-linecap:round;"/>
   </g>
   <g id="line2d_39">
    <path clip-path="url(#p3bbd362c68)" d="M 104.520384 534.07958 
L 104.520384 487.78087 
" style="fill:none;stroke:#009afa;stroke-linecap:round;"/>
   </g>
   <g id="line2d_40">
    <path clip-path="url(#p3bbd362c68)" d="M 138.527712 527.006621 
L 138.527712 475.222567 
" style="fill:none;stroke:#009afa;stroke-linecap:round;"/>
   </g>
   <g id="line2d_41">
    <path clip-path="url(#p3bbd362c68)" d="M 199.002384 512.975717 
L 199.002384 454.032811 
" style="fill:none;stroke:#009afa;stroke-linecap:round;"/>
   </g>
   <g id="line2d_42">
    <path clip-path="url(#p3bbd362c68)" d="M 306.543145 489.721007 
L 306.543145 415.448253 
" style="fill:none;stroke:#009afa;stroke-linecap:round;"/>
   </g>
   <g id="line2d_43">
    <path clip-path="url(#p3bbd362c68)" d="M 497.780734 496.799624 
L 497.780734 191.389379 
" style="fill:none;stroke:#009afa;stroke-linecap:round;"/>
   </g>
   <g id="line2d_44">
    <path clip-path="url(#p3bbd362c68)" d="M 837.854485 175.914987 
L 837.854485 33.22042 
" style="fill:none;stroke:#009afa;stroke-linecap:round;"/>
   </g>
   <g id="PathCollection_1">
    <defs>
     <path d="M 2 0 
L -2 -0 
" id="m3a1e4969b9" style="stroke:#009afa;stroke-width:1.5;"/>
    </defs>
    <g clip-path="url(#p3bbd362c68)">
     <use style="fill:#009afa;stroke:#009afa;stroke-width:1.5;" x="60.825515" xlink:href="#m3a1e4969b9" y="525.479784"/>
     <use style="fill:#009afa;stroke:#009afa;stroke-width:1.5;" x="60.825515" xlink:href="#m3a1e4969b9" y="525.466617"/>
     <use style="fill:#009afa;stroke:#009afa;stroke-width:1.5;" x="60.826136" xlink:href="#m3a1e4969b9" y="525.488328"/>
     <use style="fill:#009afa;stroke:#009afa;stroke-width:1.5;" x="60.826136" xlink:href="#m3a1e4969b9" y="525.458212"/>
     <use style="fill:#009afa;stroke:#009afa;stroke-width:1.5;" x="60.827224" xlink:href="#m3a1e4969b9" y="525.481955"/>
     <use style="fill:#009afa;stroke:#009afa;stroke-width:1.5;" x="60.827224" xlink:href="#m3a1e4969b9" y="525.468272"/>
     <use style="fill:#009afa;stroke:#009afa;stroke-width:1.5;" x="60.829167" xlink:href="#m3a1e4969b9" y="525.479919"/>
     <use style="fill:#009afa;stroke:#009afa;stroke-width:1.5;" x="60.829167" xlink:href="#m3a1e4969b9" y="525.470638"/>
     <use style="fill:#009afa;stroke:#009afa;stroke-width:1.5;" x="60.832508" xlink:href="#m3a1e4969b9" y="525.481762"/>
     <use style="fill:#009afa;stroke:#009afa;stroke-width:1.5;" x="60.832508" xlink:href="#m3a1e4969b9" y="525.469882"/>
     <use style="fill:#009afa;stroke:#009afa;stroke-width:1.5;" x="60.838569" xlink:href="#m3a1e4969b9" y="525.480263"/>
     <use style="fill:#009afa;stroke:#009afa;stroke-width:1.5;" x="60.838569" xlink:href="#m3a1e4969b9" y="525.46379"/>
     <use style="fill:#009afa;stroke:#009afa;stroke-width:1.5;" x="60.84937" xlink:href="#m3a1e4969b9" y="525.473567"/>
     <use style="fill:#009afa;stroke:#009afa;stroke-width:1.5;" x="60.84937" xlink:href="#m3a1e4969b9" y="525.458121"/>
     <use style="fill:#009afa;stroke:#009afa;stroke-width:1.5;" x="60.868485" xlink:href="#m3a1e4969b9" y="525.470396"/>
     <use style="fill:#009afa;stroke:#009afa;stroke-width:1.5;" x="60.868485" xlink:href="#m3a1e4969b9" y="525.464808"/>
     <use style="fill:#009afa;stroke:#009afa;stroke-width:1.5;" x="60.902441" xlink:href="#m3a1e4969b9" y="525.463195"/>
     <use style="fill:#009afa;stroke:#009afa;stroke-width:1.5;" x="60.902441" xlink:href="#m3a1e4969b9" y="525.4622"/>
     <use style="fill:#009afa;stroke:#009afa;stroke-width:1.5;" x="60.962971" xlink:href="#m3a1e4969b9" y="525.454411"/>
     <use style="fill:#009afa;stroke:#009afa;stroke-width:1.5;" x="60.962971" xlink:href="#m3a1e4969b9" y="525.451363"/>
     <use style="fill:#009afa;stroke:#009afa;stroke-width:1.5;" x="61.070512" xlink:href="#m3a1e4969b9" y="526.450489"/>
     <use style="fill:#009afa;stroke:#009afa;stroke-width:1.5;" x="61.070512" xlink:href="#m3a1e4969b9" y="524.119778"/>
     <use style="fill:#009afa;stroke:#009afa;stroke-width:1.5;" x="61.261739" xlink:href="#m3a1e4969b9" y="525.402638"/>
     <use style="fill:#009afa;stroke:#009afa;stroke-width:1.5;" x="61.261739" xlink:href="#m3a1e4969b9" y="525.396864"/>
     <use style="fill:#009afa;stroke:#009afa;stroke-width:1.5;" x="61.601768" xlink:href="#m3a1e4969b9" y="526.137675"/>
     <use style="fill:#009afa;stroke:#009afa;stroke-width:1.5;" x="61.601768" xlink:href="#m3a1e4969b9" y="524.208091"/>
     <use style="fill:#009afa;stroke:#009afa;stroke-width:1.5;" x="62.20653" xlink:href="#m3a1e4969b9" y="525.635529"/>
     <use style="fill:#009afa;stroke:#009afa;stroke-width:1.5;" x="62.20653" xlink:href="#m3a1e4969b9" y="524.678867"/>
     <use style="fill:#009afa;stroke:#009afa;stroke-width:1.5;" x="63.281939" xlink:href="#m3a1e4969b9" y="525.553978"/>
     <use style="fill:#009afa;stroke:#009afa;stroke-width:1.5;" x="63.281939" xlink:href="#m3a1e4969b9" y="524.06782"/>
     <use style="fill:#009afa;stroke:#009afa;stroke-width:1.5;" x="65.194365" xlink:href="#m3a1e4969b9" y="524.902097"/>
     <use style="fill:#009afa;stroke:#009afa;stroke-width:1.5;" x="65.194365" xlink:href="#m3a1e4969b9" y="523.883518"/>
     <use style="fill:#009afa;stroke:#009afa;stroke-width:1.5;" x="68.595035" xlink:href="#m3a1e4969b9" y="524.111567"/>
     <use style="fill:#009afa;stroke:#009afa;stroke-width:1.5;" x="68.595035" xlink:href="#m3a1e4969b9" y="522.636892"/>
     <use style="fill:#009afa;stroke:#009afa;stroke-width:1.5;" x="74.642502" xlink:href="#m3a1e4969b9" y="522.501197"/>
     <use style="fill:#009afa;stroke:#009afa;stroke-width:1.5;" x="74.642502" xlink:href="#m3a1e4969b9" y="520.999287"/>
     <use style="fill:#009afa;stroke:#009afa;stroke-width:1.5;" x="85.396594" xlink:href="#m3a1e4969b9" y="521.479672"/>
     <use style="fill:#009afa;stroke:#009afa;stroke-width:1.5;" x="85.396594" xlink:href="#m3a1e4969b9" y="515.316807"/>
     <use style="fill:#009afa;stroke:#009afa;stroke-width:1.5;" x="104.520384" xlink:href="#m3a1e4969b9" y="534.07958"/>
     <use style="fill:#009afa;stroke:#009afa;stroke-width:1.5;" x="104.520384" xlink:href="#m3a1e4969b9" y="487.78087"/>
     <use style="fill:#009afa;stroke:#009afa;stroke-width:1.5;" x="138.527712" xlink:href="#m3a1e4969b9" y="527.006621"/>
     <use style="fill:#009afa;stroke:#009afa;stroke-width:1.5;" x="138.527712" xlink:href="#m3a1e4969b9" y="475.222567"/>
     <use style="fill:#009afa;stroke:#009afa;stroke-width:1.5;" x="199.002384" xlink:href="#m3a1e4969b9" y="512.975717"/>
     <use style="fill:#009afa;stroke:#009afa;stroke-width:1.5;" x="199.002384" xlink:href="#m3a1e4969b9" y="454.032811"/>
     <use style="fill:#009afa;stroke:#009afa;stroke-width:1.5;" x="306.543145" xlink:href="#m3a1e4969b9" y="489.721007"/>
     <use style="fill:#009afa;stroke:#009afa;stroke-width:1.5;" x="306.543145" xlink:href="#m3a1e4969b9" y="415.448253"/>
     <use style="fill:#009afa;stroke:#009afa;stroke-width:1.5;" x="497.780734" xlink:href="#m3a1e4969b9" y="496.799624"/>
     <use style="fill:#009afa;stroke:#009afa;stroke-width:1.5;" x="497.780734" xlink:href="#m3a1e4969b9" y="191.389379"/>
     <use style="fill:#009afa;stroke:#009afa;stroke-width:1.5;" x="837.854485" xlink:href="#m3a1e4969b9" y="175.914987"/>
     <use style="fill:#009afa;stroke:#009afa;stroke-width:1.5;" x="837.854485" xlink:href="#m3a1e4969b9" y="33.22042"/>
    </g>
   </g>
   <g id="patch_3">
    <path d="M 37.514646 549.105354 
L 37.514646 18.194646 
" style="fill:none;stroke:#000000;stroke-linecap:square;stroke-linejoin:miter;"/>
   </g>
   <g id="patch_4">
    <path d="M 37.514646 549.105354 
L 861.165354 549.105354 
" style="fill:none;stroke:#000000;stroke-linecap:square;stroke-linejoin:miter;"/>
   </g>
   <g id="text_12">
    <!-- Simplex_mod1 -->
    <defs>
     <path d="M 53.515625 70.515625 
L 53.515625 60.890625 
Q 47.90625 63.578125 42.921875 64.890625 
Q 37.9375 66.21875 33.296875 66.21875 
Q 25.25 66.21875 20.875 63.09375 
Q 16.5 59.96875 16.5 54.203125 
Q 16.5 49.359375 19.40625 46.890625 
Q 22.3125 44.4375 30.421875 42.921875 
L 36.375 41.703125 
Q 47.40625 39.59375 52.65625 34.296875 
Q 57.90625 29 57.90625 20.125 
Q 57.90625 9.515625 50.796875 4.046875 
Q 43.703125 -1.421875 29.984375 -1.421875 
Q 24.8125 -1.421875 18.96875 -0.25 
Q 13.140625 0.921875 6.890625 3.21875 
L 6.890625 13.375 
Q 12.890625 10.015625 18.65625 8.296875 
Q 24.421875 6.59375 29.984375 6.59375 
Q 38.421875 6.59375 43.015625 9.90625 
Q 47.609375 13.234375 47.609375 19.390625 
Q 47.609375 24.75 44.3125 27.78125 
Q 41.015625 30.8125 33.5 32.328125 
L 27.484375 33.5 
Q 16.453125 35.6875 11.515625 40.375 
Q 6.59375 45.0625 6.59375 53.421875 
Q 6.59375 63.09375 13.40625 68.65625 
Q 20.21875 74.21875 32.171875 74.21875 
Q 37.3125 74.21875 42.625 73.28125 
Q 47.953125 72.359375 53.515625 70.515625 
z
" id="DejaVuSans-83"/>
     <path d="M 9.421875 54.6875 
L 18.40625 54.6875 
L 18.40625 0 
L 9.421875 0 
z
M 9.421875 75.984375 
L 18.40625 75.984375 
L 18.40625 64.59375 
L 9.421875 64.59375 
z
" id="DejaVuSans-105"/>
     <path d="M 52 44.1875 
Q 55.375 50.25 60.0625 53.125 
Q 64.75 56 71.09375 56 
Q 79.640625 56 84.28125 50.015625 
Q 88.921875 44.046875 88.921875 33.015625 
L 88.921875 0 
L 79.890625 0 
L 79.890625 32.71875 
Q 79.890625 40.578125 77.09375 44.375 
Q 74.3125 48.1875 68.609375 48.1875 
Q 61.625 48.1875 57.5625 43.546875 
Q 53.515625 38.921875 53.515625 30.90625 
L 53.515625 0 
L 44.484375 0 
L 44.484375 32.71875 
Q 44.484375 40.625 41.703125 44.40625 
Q 38.921875 48.1875 33.109375 48.1875 
Q 26.21875 48.1875 22.15625 43.53125 
Q 18.109375 38.875 18.109375 30.90625 
L 18.109375 0 
L 9.078125 0 
L 9.078125 54.6875 
L 18.109375 54.6875 
L 18.109375 46.1875 
Q 21.1875 51.21875 25.484375 53.609375 
Q 29.78125 56 35.6875 56 
Q 41.65625 56 45.828125 52.96875 
Q 50 49.953125 52 44.1875 
z
" id="DejaVuSans-109"/>
     <path d="M 18.109375 8.203125 
L 18.109375 -20.796875 
L 9.078125 -20.796875 
L 9.078125 54.6875 
L 18.109375 54.6875 
L 18.109375 46.390625 
Q 20.953125 51.265625 25.265625 53.625 
Q 29.59375 56 35.59375 56 
Q 45.5625 56 51.78125 48.09375 
Q 58.015625 40.1875 58.015625 27.296875 
Q 58.015625 14.40625 51.78125 6.484375 
Q 45.5625 -1.421875 35.59375 -1.421875 
Q 29.59375 -1.421875 25.265625 0.953125 
Q 20.953125 3.328125 18.109375 8.203125 
z
M 48.6875 27.296875 
Q 48.6875 37.203125 44.609375 42.84375 
Q 40.53125 48.484375 33.40625 48.484375 
Q 26.265625 48.484375 22.1875 42.84375 
Q 18.109375 37.203125 18.109375 27.296875 
Q 18.109375 17.390625 22.1875 11.75 
Q 26.265625 6.109375 33.40625 6.109375 
Q 40.53125 6.109375 44.609375 11.75 
Q 48.6875 17.390625 48.6875 27.296875 
z
" id="DejaVuSans-112"/>
     <path d="M 9.421875 75.984375 
L 18.40625 75.984375 
L 18.40625 0 
L 9.421875 0 
z
" id="DejaVuSans-108"/>
     <path d="M 56.203125 29.59375 
L 56.203125 25.203125 
L 14.890625 25.203125 
Q 15.484375 15.921875 20.484375 11.0625 
Q 25.484375 6.203125 34.421875 6.203125 
Q 39.59375 6.203125 44.453125 7.46875 
Q 49.3125 8.734375 54.109375 11.28125 
L 54.109375 2.78125 
Q 49.265625 0.734375 44.1875 -0.34375 
Q 39.109375 -1.421875 33.890625 -1.421875 
Q 20.796875 -1.421875 13.15625 6.1875 
Q 5.515625 13.8125 5.515625 26.8125 
Q 5.515625 40.234375 12.765625 48.109375 
Q 20.015625 56 32.328125 56 
Q 43.359375 56 49.78125 48.890625 
Q 56.203125 41.796875 56.203125 29.59375 
z
M 47.21875 32.234375 
Q 47.125 39.59375 43.09375 43.984375 
Q 39.0625 48.390625 32.421875 48.390625 
Q 24.90625 48.390625 20.390625 44.140625 
Q 15.875 39.890625 15.1875 32.171875 
z
" id="DejaVuSans-101"/>
     <path d="M 54.890625 54.6875 
L 35.109375 28.078125 
L 55.90625 0 
L 45.3125 0 
L 29.390625 21.484375 
L 13.484375 0 
L 2.875 0 
L 24.125 28.609375 
L 4.6875 54.6875 
L 15.28125 54.6875 
L 29.78125 35.203125 
L 44.28125 54.6875 
z
" id="DejaVuSans-120"/>
     <path d="M 50.984375 -16.609375 
L 50.984375 -23.578125 
L -0.984375 -23.578125 
L -0.984375 -16.609375 
z
" id="DejaVuSans-95"/>
     <path d="M 30.609375 48.390625 
Q 23.390625 48.390625 19.1875 42.75 
Q 14.984375 37.109375 14.984375 27.296875 
Q 14.984375 17.484375 19.15625 11.84375 
Q 23.34375 6.203125 30.609375 6.203125 
Q 37.796875 6.203125 41.984375 11.859375 
Q 46.1875 17.53125 46.1875 27.296875 
Q 46.1875 37.015625 41.984375 42.703125 
Q 37.796875 48.390625 30.609375 48.390625 
z
M 30.609375 56 
Q 42.328125 56 49.015625 48.375 
Q 55.71875 40.765625 55.71875 27.296875 
Q 55.71875 13.875 49.015625 6.21875 
Q 42.328125 -1.421875 30.609375 -1.421875 
Q 18.84375 -1.421875 12.171875 6.21875 
Q 5.515625 13.875 5.515625 27.296875 
Q 5.515625 40.765625 12.171875 48.375 
Q 18.84375 56 30.609375 56 
z
" id="DejaVuSans-111"/>
     <path d="M 45.40625 46.390625 
L 45.40625 75.984375 
L 54.390625 75.984375 
L 54.390625 0 
L 45.40625 0 
L 45.40625 8.203125 
Q 42.578125 3.328125 38.25 0.953125 
Q 33.9375 -1.421875 27.875 -1.421875 
Q 17.96875 -1.421875 11.734375 6.484375 
Q 5.515625 14.40625 5.515625 27.296875 
Q 5.515625 40.1875 11.734375 48.09375 
Q 17.96875 56 27.875 56 
Q 33.9375 56 38.25 53.625 
Q 42.578125 51.265625 45.40625 46.390625 
z
M 14.796875 27.296875 
Q 14.796875 17.390625 18.875 11.75 
Q 22.953125 6.109375 30.078125 6.109375 
Q 37.203125 6.109375 41.296875 11.75 
Q 45.40625 17.390625 45.40625 27.296875 
Q 45.40625 37.203125 41.296875 42.84375 
Q 37.203125 48.484375 30.078125 48.484375 
Q 22.953125 48.484375 18.875 42.84375 
Q 14.796875 37.203125 14.796875 27.296875 
z
" id="DejaVuSans-100"/>
    </defs>
    <g transform="translate(397.795937 12.194646)scale(0.14 -0.14)">
     <use xlink:href="#DejaVuSans-83"/>
     <use x="63.476562" xlink:href="#DejaVuSans-105"/>
     <use x="91.259766" xlink:href="#DejaVuSans-109"/>
     <use x="188.671875" xlink:href="#DejaVuSans-112"/>
     <use x="252.148438" xlink:href="#DejaVuSans-108"/>
     <use x="279.931641" xlink:href="#DejaVuSans-101"/>
     <use x="341.439453" xlink:href="#DejaVuSans-120"/>
     <use x="400.619141" xlink:href="#DejaVuSans-95"/>
     <use x="450.619141" xlink:href="#DejaVuSans-109"/>
     <use x="548.03125" xlink:href="#DejaVuSans-111"/>
     <use x="609.212891" xlink:href="#DejaVuSans-100"/>
     <use x="672.689453" xlink:href="#DejaVuSans-49"/>
    </g>
   </g>
   <g id="legend_1">
    <g id="patch_5">
     <path d="M 43.114646 36.337146 
L 78.539646 36.337146 
Q 80.139646 36.337146 80.139646 34.737146 
L 80.139646 23.794646 
Q 80.139646 22.194646 78.539646 22.194646 
L 43.114646 22.194646 
Q 41.514646 22.194646 41.514646 23.794646 
L 41.514646 34.737146 
Q 41.514646 36.337146 43.114646 36.337146 
z
" style="fill:#ffffff;stroke:#000000;stroke-linejoin:miter;"/>
    </g>
    <g id="line2d_45">
     <path d="M 44.714646 28.673396 
L 60.714646 28.673396 
" style="fill:none;stroke:#009afa;stroke-linecap:square;"/>
    </g>
    <g id="line2d_46"/>
    <g id="text_13">
     <!-- y1 -->
     <defs>
      <path d="M 32.171875 -5.078125 
Q 28.375 -14.84375 24.75 -17.8125 
Q 21.140625 -20.796875 15.09375 -20.796875 
L 7.90625 -20.796875 
L 7.90625 -13.28125 
L 13.1875 -13.28125 
Q 16.890625 -13.28125 18.9375 -11.515625 
Q 21 -9.765625 23.484375 -3.21875 
L 25.09375 0.875 
L 2.984375 54.6875 
L 12.5 54.6875 
L 29.59375 11.921875 
L 46.6875 54.6875 
L 56.203125 54.6875 
z
" id="DejaVuSans-121"/>
     </defs>
     <g transform="translate(67.114646 31.473396)scale(0.08 -0.08)">
      <use xlink:href="#DejaVuSans-121"/>
      <use x="59.179688" xlink:href="#DejaVuSans-49"/>
     </g>
    </g>
   </g>
  </g>
 </g>
 <defs>
  <clipPath id="p3bbd362c68">
   <rect height="530.910709" width="823.650709" x="37.514646" y="18.194646"/>
  </clipPath>
 </defs>
</svg>
